<?xml version="1.0" encoding="UTF-8" ?>
<!DOCTYPE svg PUBLIC "-//W3C//DTD SVG 1.1//EN" "http://www.w3.org/Graphics/SVG/1.1/DTD/svg11.dtd">
<svg width="940pt" height="452pt" viewBox="0 0 940 452" version="1.1" xmlns="http://www.w3.org/2000/svg">
<path fill="#ffffff" d=" M 0.00 0.00 L 346.49 0.00 C 341.01 3.37 335.62 6.86 330.04 10.05 C 328.69 9.01 327.34 7.99 326.00 6.94 C 325.40 8.54 324.79 10.14 324.16 11.73 C 323.65 12.94 323.14 14.15 322.62 15.35 C 314.91 15.61 307.22 16.22 299.52 16.55 C 298.66 18.00 297.80 19.46 296.94 20.92 C 293.01 20.76 289.82 22.86 287.59 25.95 C 284.82 28.75 282.77 33.04 278.42 33.50 C 275.42 33.84 272.69 35.00 270.99 37.60 C 274.91 38.31 277.74 40.98 280.50 43.64 C 283.11 44.75 284.51 41.57 285.85 39.96 C 286.09 40.32 286.57 41.02 286.81 41.38 C 286.97 41.62 287.30 42.11 287.46 42.36 C 295.12 44.58 302.91 46.31 310.62 48.37 C 311.28 52.08 311.97 55.78 312.69 59.48 C 313.88 58.35 315.09 57.22 316.29 56.09 C 317.61 56.05 318.94 56.00 320.27 55.96 C 315.68 56.85 316.04 61.72 315.49 65.30 C 316.50 65.67 317.52 66.04 318.54 66.40 C 317.84 67.64 317.14 68.88 316.45 70.12 C 318.46 78.18 325.45 83.23 330.58 89.27 C 330.87 89.53 331.45 90.04 331.74 90.30 C 333.20 89.95 334.66 89.59 336.12 89.20 C 336.91 90.48 337.71 91.77 338.51 93.05 C 341.21 90.98 344.57 89.27 345.93 85.95 C 347.22 83.07 348.25 80.09 349.41 77.15 C 353.90 75.97 358.58 75.49 362.97 73.98 C 364.90 72.23 365.91 69.66 367.90 67.96 C 369.57 67.31 371.38 67.09 373.14 66.72 C 378.11 65.65 383.19 65.06 388.08 63.64 C 388.27 63.20 388.66 62.33 388.85 61.89 C 387.17 59.77 385.23 57.89 383.36 55.94 C 383.50 55.83 383.77 55.60 383.90 55.49 C 385.96 58.12 388.72 60.05 391.36 62.05 C 392.42 60.20 393.44 58.32 394.40 56.41 C 393.06 54.16 392.17 51.69 392.33 49.04 C 395.06 49.42 397.79 49.88 400.52 50.35 C 402.51 46.54 403.34 42.29 404.29 38.13 C 403.14 37.07 401.99 36.01 400.85 34.95 C 403.77 30.16 407.12 25.58 411.63 22.18 C 414.29 20.52 416.57 18.17 417.13 14.97 C 410.80 15.95 404.87 18.50 398.62 19.82 C 395.57 14.08 393.68 7.57 389.65 2.43 C 385.65 2.15 381.69 3.01 377.73 3.43 C 376.38 2.56 375.39 1.29 374.47 0.00 L 940.00 0.00 L 940.00 452.00 L 0.00 452.00 L 0.00 116.97 C 1.35 117.62 2.72 118.24 4.09 118.85 C 5.73 118.26 7.37 117.66 9.00 117.05 C 6.11 115.80 3.01 116.06 0.01 116.77 L 0.00 115.95 L 0.00 0.00 Z" />
<path fill="#d8eaf7" d=" M 346.49 0.00 L 374.47 0.00 C 375.39 1.29 376.38 2.56 377.73 3.43 C 376.11 3.89 373.32 3.72 373.36 6.03 C 372.28 12.35 371.70 18.75 370.76 25.09 C 369.78 31.33 369.66 37.74 367.64 43.77 C 353.27 32.93 338.81 22.19 324.16 11.73 C 324.79 10.14 325.40 8.54 326.00 6.94 C 327.34 7.99 328.69 9.01 330.04 10.05 C 335.62 6.86 341.01 3.37 346.49 0.00 Z" />
<path fill="#a7cdeb" d=" M 377.73 3.43 C 381.69 3.01 385.65 2.15 389.65 2.43 C 393.68 7.57 395.57 14.08 398.62 19.82 C 404.87 18.50 410.80 15.95 417.13 14.97 C 416.57 18.17 414.29 20.52 411.63 22.18 C 405.64 23.72 400.58 27.46 395.04 30.04 C 386.14 34.94 376.79 39.04 368.20 44.45 C 368.06 44.28 367.78 43.94 367.64 43.77 C 369.66 37.74 369.78 31.33 370.76 25.09 C 371.70 18.75 372.28 12.35 373.36 6.03 C 373.32 3.72 376.11 3.89 377.73 3.43 Z" />
<path fill="#50a1cf" d=" M 324.16 11.73 C 338.81 22.19 353.27 32.93 367.64 43.77 C 367.78 43.94 368.06 44.28 368.20 44.45 L 367.71 44.96 C 362.29 51.50 356.74 57.93 351.27 64.43 C 344.43 62.41 337.60 60.38 330.82 58.21 C 327.38 57.18 323.92 55.78 320.27 55.96 C 318.94 56.00 317.61 56.05 316.29 56.09 C 315.09 57.22 313.88 58.35 312.69 59.48 C 311.97 55.78 311.28 52.08 310.62 48.37 C 302.91 46.31 295.12 44.58 287.46 42.36 C 287.30 42.11 286.97 41.62 286.81 41.38 C 288.06 36.32 287.67 31.10 287.59 25.95 C 289.82 22.86 293.01 20.76 296.94 20.92 C 297.80 19.46 298.66 18.00 299.52 16.55 C 307.22 16.22 314.91 15.61 322.62 15.35 C 323.14 14.15 323.65 12.94 324.16 11.73 Z" />
<path fill="#1a67aa" d=" M 395.04 30.04 C 400.58 27.46 405.64 23.72 411.63 22.18 C 407.12 25.58 403.77 30.16 400.85 34.95 C 401.99 36.01 403.14 37.07 404.29 38.13 C 403.34 42.29 402.51 46.54 400.52 50.35 C 397.79 49.88 395.06 49.42 392.33 49.04 C 392.17 51.69 393.06 54.16 394.40 56.41 C 393.44 58.32 392.42 60.20 391.36 62.05 C 388.72 60.05 385.96 58.12 383.90 55.49 C 384.28 55.17 385.03 54.54 385.40 54.22 C 379.66 51.35 374.58 47.19 368.41 45.24 C 368.24 45.17 367.88 45.03 367.71 44.96 L 368.20 44.45 C 376.79 39.04 386.14 34.94 395.04 30.04 Z" />
<path fill="#82bede" d=" M 278.42 33.50 C 282.77 33.04 284.82 28.75 287.59 25.95 C 287.67 31.10 288.06 36.32 286.81 41.38 C 286.57 41.02 286.09 40.32 285.85 39.96 C 284.51 41.57 283.11 44.75 280.50 43.64 C 277.74 40.98 274.91 38.31 270.99 37.60 C 272.69 35.00 275.42 33.84 278.42 33.50 Z" />
<path fill="#a7d1e8" d=" M 186.69 30.64 C 190.28 30.15 193.91 30.52 197.52 30.53 C 198.92 32.46 202.75 34.77 200.31 37.31 C 198.24 39.57 195.09 36.85 193.03 35.76 C 190.08 35.90 186.95 35.97 184.65 33.79 C 185.31 32.73 185.79 31.53 186.69 30.64 Z" />
<path fill="#acd4ea" d=" M 164.37 38.52 C 163.46 33.52 169.65 32.98 172.86 31.20 C 173.19 32.37 173.52 33.55 173.85 34.73 C 173.30 35.62 172.76 36.51 172.21 37.40 C 169.60 37.78 166.99 38.16 164.37 38.52 Z" />
<path fill="#a2cee6" d=" M 206.88 32.80 C 215.13 34.56 223.28 36.77 231.54 38.54 C 230.25 39.45 229.11 40.54 227.99 41.64 C 220.72 40.37 213.45 39.06 206.21 37.65 C 206.11 36.00 206.27 34.36 206.88 32.80 Z" />
<path fill="#ad2361" d=" M 725.81 40.62 C 729.74 39.17 733.38 35.60 737.83 36.45 C 747.30 37.73 756.79 38.90 766.26 40.13 C 766.30 42.77 765.00 45.01 763.44 47.03 C 771.88 47.14 780.32 47.16 788.76 47.39 C 785.59 49.63 781.73 50.26 778.00 50.92 C 753.56 55.94 729.11 60.99 704.68 66.08 C 698.24 67.20 691.88 68.72 685.47 69.98 C 685.60 66.68 685.31 63.39 684.61 60.17 C 684.32 58.94 684.27 57.67 683.80 56.49 C 681.17 54.63 678.26 53.17 675.73 51.17 C 676.38 50.34 677.05 49.50 677.72 48.66 C 690.47 45.47 703.20 42.19 715.92 38.89 C 719.31 37.59 722.56 39.87 725.81 40.62 Z" />
<path fill="#a6d0e7" d=" M 143.31 38.25 C 152.83 39.30 162.36 40.36 171.89 41.29 C 173.61 40.09 175.35 38.03 177.67 38.48 C 178.66 39.12 179.54 39.91 180.46 40.66 C 182.18 40.72 183.91 40.77 185.64 40.83 C 184.30 43.37 182.81 45.82 181.24 48.22 C 183.77 48.51 186.30 48.78 188.84 49.04 C 188.55 50.25 188.26 51.47 187.99 52.68 C 191.05 55.25 194.05 57.88 197.14 60.42 C 194.54 64.07 189.53 63.91 185.75 65.63 C 191.01 66.57 196.37 66.29 201.68 66.72 C 202.29 66.03 202.89 65.33 203.47 64.61 C 203.12 64.06 202.42 62.97 202.07 62.42 C 202.48 61.96 203.30 61.05 203.72 60.60 C 205.80 60.41 207.89 60.22 209.99 60.03 C 209.89 61.59 209.80 63.16 209.73 64.73 C 209.36 63.35 209.09 61.96 208.79 60.57 C 206.80 62.17 204.60 63.81 204.06 66.48 C 198.02 69.52 193.94 75.09 189.10 79.62 C 181.08 87.68 172.90 95.58 164.84 103.59 C 164.60 103.33 164.12 102.81 163.88 102.56 C 163.81 99.92 163.88 97.27 163.56 94.64 C 161.83 82.88 160.01 71.13 157.63 59.48 C 157.16 56.21 157.03 52.90 156.85 49.60 C 164.00 50.13 171.14 50.78 178.29 51.27 C 178.12 50.82 177.78 49.92 177.61 49.47 C 172.78 49.04 167.91 49.18 163.07 48.83 C 162.16 47.69 161.26 46.56 160.36 45.42 C 159.02 45.94 157.68 46.46 156.34 46.97 C 155.39 45.77 154.45 44.56 153.50 43.36 C 148.70 43.28 143.88 43.25 139.10 42.76 C 140.48 41.23 141.88 39.73 143.31 38.25 Z" />
<path fill="#a9245d" d=" M 616.82 46.95 C 626.84 43.84 637.00 41.19 647.04 38.15 C 646.47 38.96 645.91 39.78 645.36 40.59 C 635.96 44.26 626.58 47.99 617.18 51.68 C 617.05 50.10 616.94 48.53 616.82 46.95 Z" />
<path fill="#82c0df" d=" M 227.99 41.64 C 229.11 40.54 230.25 39.45 231.54 38.54 C 237.98 40.25 244.55 41.49 250.93 43.42 C 252.62 44.36 250.44 46.19 249.18 45.48 C 242.09 44.33 235.04 42.99 227.99 41.64 Z" />
<path fill="#a5d0e7" d=" M 188.89 39.97 C 194.37 40.26 200.42 37.88 205.35 41.19 C 204.27 43.46 202.56 45.67 200.07 46.43 C 197.27 46.12 194.56 45.34 191.82 44.72 C 190.52 45.95 189.22 47.18 187.90 48.37 C 186.99 45.57 187.08 42.40 188.89 39.97 Z" />
<path fill="#d5276f" d=" M 827.44 39.67 C 829.92 39.55 832.40 39.77 834.90 39.76 C 834.97 40.36 835.11 41.57 835.18 42.17 C 836.12 50.74 837.86 59.19 838.85 67.75 C 836.63 69.86 834.45 72.01 832.32 74.21 C 827.32 79.59 821.16 83.73 816.29 89.24 C 810.91 95.24 804.18 99.80 798.75 105.74 C 795.83 108.86 792.74 111.81 789.42 114.49 C 785.03 118.05 781.31 122.33 777.30 126.29 C 774.12 129.48 770.41 132.08 767.21 135.24 C 763.17 139.19 759.44 143.48 755.00 146.99 C 750.85 150.26 747.23 154.12 743.71 158.03 C 709.00 151.06 674.32 144.00 639.64 136.92 C 661.33 125.78 683.24 115.03 705.01 104.04 C 714.04 100.23 722.24 94.75 731.33 91.07 C 749.49 82.49 767.33 73.22 785.32 64.30 C 792.34 60.58 799.76 57.61 806.42 53.26 C 807.62 54.47 808.78 55.72 809.94 56.98 C 811.60 55.87 813.28 54.76 814.98 53.70 C 819.88 56.55 825.58 53.77 830.84 53.69 C 831.68 51.48 832.50 49.25 833.31 47.02 C 830.93 46.50 828.54 46.01 826.16 45.56 C 826.08 43.49 825.32 41.03 827.44 39.67 Z" />
<path fill="#dc2984" d=" M 834.90 39.76 C 839.31 40.29 843.20 42.62 847.32 44.14 C 846.03 46.15 843.72 46.80 841.64 47.62 C 846.64 48.86 851.59 50.25 856.57 51.57 C 862.57 53.15 868.80 53.63 874.86 54.96 C 879.90 58.95 884.14 63.82 888.76 68.26 C 893.12 72.91 896.95 78.05 901.78 82.26 C 904.21 84.64 907.21 86.90 907.82 90.49 C 904.43 91.21 900.92 91.45 897.65 92.59 C 895.05 95.44 896.25 99.54 894.88 102.87 C 894.16 105.59 892.31 107.76 890.33 109.67 C 886.85 106.25 884.99 100.43 879.84 99.23 C 880.37 97.79 880.90 96.20 882.29 95.34 C 885.82 92.76 889.61 90.55 893.17 87.99 C 891.33 88.87 889.51 89.80 887.71 90.73 C 887.24 89.33 886.80 87.94 886.36 86.54 C 885.02 86.50 883.69 86.45 882.38 86.41 C 880.13 88.06 877.90 89.74 875.68 91.40 C 864.66 76.83 853.25 62.54 841.49 48.59 C 839.65 46.20 838.43 42.89 835.18 42.17 C 835.11 41.57 834.97 40.36 834.90 39.76 Z" />
<path fill="#dc2878" d=" M 835.18 42.17 C 838.43 42.89 839.65 46.20 841.49 48.59 C 853.25 62.54 864.66 76.83 875.68 91.40 C 873.13 93.16 870.90 95.54 868.03 96.70 C 859.49 96.38 850.93 95.93 842.42 95.18 C 842.49 85.93 839.94 76.90 838.85 67.75 C 837.86 59.19 836.12 50.74 835.18 42.17 Z" />
<path fill="#c2dfef" d=" M 209.50 45.21 C 210.36 43.40 211.92 42.26 213.99 42.97 C 216.01 42.69 215.53 45.09 215.05 46.15 C 213.19 45.86 211.34 45.56 209.50 45.21 Z" />
<path fill="#127dbd" d=" M 351.27 64.43 C 356.74 57.93 362.29 51.50 367.71 44.96 C 367.88 45.03 368.24 45.17 368.41 45.24 C 369.87 52.42 371.30 59.62 373.14 66.72 C 371.38 67.09 369.57 67.31 367.90 67.96 C 365.91 69.66 364.90 72.23 362.97 73.98 C 358.58 75.49 353.90 75.97 349.41 77.15 C 348.25 80.09 347.22 83.07 345.93 85.95 C 344.57 89.27 341.21 90.98 338.51 93.05 C 337.71 91.77 336.91 90.48 336.12 89.20 C 334.66 89.59 333.20 89.95 331.74 90.30 C 331.45 90.04 330.87 89.53 330.58 89.27 C 337.14 80.72 344.54 72.85 351.27 64.43 Z" />
<path fill="#0461a9" d=" M 368.41 45.24 C 374.58 47.19 379.66 51.35 385.40 54.22 C 385.03 54.54 384.28 55.17 383.90 55.49 C 383.77 55.60 383.50 55.83 383.36 55.94 C 385.23 57.89 387.17 59.77 388.85 61.89 C 388.66 62.33 388.27 63.20 388.08 63.64 C 383.19 65.06 378.11 65.65 373.14 66.72 C 371.30 59.62 369.87 52.42 368.41 45.24 Z" />
<path fill="#a0cde5" d=" M 210.17 52.99 C 211.93 50.55 214.17 48.21 217.06 47.20 C 218.62 47.37 220.10 47.88 221.60 48.31 L 220.70 48.91 C 219.65 49.51 218.73 50.30 217.96 51.23 C 218.39 51.51 219.24 52.06 219.66 52.34 L 220.31 52.70 C 216.96 53.30 213.54 53.71 210.17 52.99 Z" />
<path fill="#99285d" d=" M 603.87 50.61 C 608.14 49.25 612.49 48.12 616.82 46.95 C 616.94 48.53 617.05 50.10 617.18 51.68 C 616.06 52.12 614.96 52.56 613.86 53.00 C 614.58 54.26 615.72 55.38 615.95 56.87 C 615.36 57.96 614.64 58.98 613.97 60.02 C 609.20 58.97 604.43 57.90 599.68 56.81 C 600.76 54.61 601.06 51.30 603.87 50.61 Z" />
<path fill="#abd5f0" d=" M 135.04 48.08 C 142.32 48.03 149.59 49.11 156.85 49.60 C 157.03 52.90 157.16 56.21 157.63 59.48 C 156.73 60.21 155.84 60.93 154.98 61.69 L 154.39 62.19 C 152.49 59.85 150.55 57.54 148.56 55.29 C 144.13 58.17 137.97 59.96 133.30 56.54 C 129.57 54.55 133.11 50.15 135.04 48.08 Z" />
<path fill="#70b7db" d=" M 223.74 54.22 C 225.99 51.66 228.89 49.84 231.75 48.04 C 234.19 49.54 236.64 51.16 238.12 53.70 C 238.76 52.44 239.41 51.18 240.07 49.93 C 248.69 50.79 257.38 51.21 265.97 52.40 C 272.32 54.23 278.76 55.84 285.01 58.00 C 286.09 59.91 286.04 62.24 286.53 64.35 C 287.46 64.74 288.41 65.10 289.34 65.55 C 288.95 68.66 288.33 71.75 288.30 74.90 C 288.61 75.22 289.24 75.87 289.56 76.20 L 289.55 76.24 C 288.84 79.03 288.80 81.91 289.35 84.73 C 287.93 85.11 286.52 85.95 285.01 85.57 C 275.78 83.65 266.46 82.25 257.16 80.69 C 256.59 78.06 255.87 75.21 258.13 73.15 C 261.07 73.01 264.60 74.27 267.02 72.05 C 268.20 71.10 269.27 70.03 270.37 68.98 C 269.24 68.25 268.12 67.52 267.00 66.80 C 265.92 68.17 264.84 69.54 263.76 70.91 C 262.20 70.79 260.65 70.67 259.10 70.54 C 259.51 68.41 260.19 66.34 261.05 64.36 C 259.00 63.91 257.13 63.02 255.69 61.48 C 253.91 62.61 251.39 63.52 249.43 62.52 C 245.08 59.16 239.83 57.30 234.81 55.21 C 231.67 54.22 230.08 57.95 228.39 59.85 C 225.24 59.83 224.77 56.53 223.74 54.22 Z" />
<path fill="#aa245e" d=" M 641.18 56.30 C 644.15 52.94 647.94 50.47 651.50 47.79 C 653.36 49.27 655.26 50.73 657.15 52.19 C 656.72 56.39 657.60 60.56 657.46 64.75 C 655.79 67.54 653.56 69.94 651.97 72.79 C 655.60 70.22 658.78 66.90 662.75 64.86 C 665.37 64.91 667.97 65.30 670.58 65.57 C 670.36 64.77 670.14 63.97 669.93 63.17 C 668.10 63.00 666.28 62.71 664.45 62.80 C 662.79 63.47 661.38 64.60 659.89 65.54 C 659.52 62.55 659.14 59.56 658.69 56.58 C 660.23 54.89 662.03 53.46 663.93 52.16 C 663.92 53.07 663.90 54.88 663.90 55.79 C 664.63 55.88 666.09 56.05 666.82 56.14 C 667.70 54.23 668.66 52.36 669.80 50.59 C 673.21 52.08 676.69 53.40 680.11 54.87 C 682.43 55.70 683.28 58.30 684.61 60.17 C 685.31 63.39 685.60 66.68 685.47 69.98 C 669.84 73.08 654.27 76.45 638.65 79.58 C 632.33 80.78 626.14 82.82 619.67 83.00 C 619.37 76.83 618.46 70.72 617.88 64.58 C 621.03 65.21 623.20 62.99 625.25 61.00 C 631.40 60.39 637.29 62.41 643.17 63.88 C 642.53 63.12 641.89 62.35 641.27 61.59 C 641.24 59.82 641.22 58.06 641.18 56.30 Z" />
<path fill="#c4256c" d=" M 788.76 47.39 C 794.13 47.30 799.50 47.49 804.87 47.53 C 805.30 49.46 805.80 51.37 806.42 53.26 C 799.76 57.61 792.34 60.58 785.32 64.30 C 767.33 73.22 749.49 82.49 731.33 91.07 C 731.33 90.65 731.31 89.79 731.31 89.36 C 722.57 81.44 713.17 74.27 704.68 66.08 C 729.11 60.99 753.56 55.94 778.00 50.92 C 781.73 50.26 785.59 49.63 788.76 47.39 Z" />
<path fill="#a3cee6" d=" M 194.39 49.59 C 198.58 49.36 202.77 49.01 206.96 49.00 C 207.35 50.30 207.76 51.60 208.00 52.94 C 207.15 55.34 205.06 56.93 203.28 58.62 C 201.98 57.28 200.76 55.84 199.27 54.71 C 197.53 54.31 195.72 54.37 193.95 54.27 C 193.46 52.66 193.50 51.04 194.39 49.59 Z" />
<path fill="#7dbddf" d=" M 217.96 51.23 C 218.73 50.30 219.65 49.51 220.70 48.91 C 221.46 50.37 221.11 51.51 219.66 52.34 C 219.24 52.06 218.39 51.51 217.96 51.23 Z" />
<path fill="#771a56" d=" M 521.51 55.37 C 523.31 54.61 525.10 53.84 526.89 53.05 C 539.74 56.89 552.60 60.69 565.43 64.59 C 566.20 65.64 567.49 67.62 568.61 65.69 C 570.91 66.13 573.15 66.85 575.32 67.77 C 574.71 68.67 574.12 69.58 573.53 70.49 C 568.26 71.29 563.02 72.25 557.76 73.10 C 557.95 74.29 558.14 75.48 558.34 76.66 C 559.05 76.74 560.48 76.89 561.19 76.96 C 561.62 76.71 562.47 76.19 562.90 75.93 C 564.87 76.29 566.86 76.64 568.84 77.00 C 569.10 74.16 571.24 72.53 573.77 71.72 C 578.90 76.61 584.64 80.85 589.41 86.11 C 575.87 92.04 562.30 97.94 548.70 103.75 C 545.33 105.17 541.85 106.43 538.82 108.52 L 538.31 108.93 C 537.03 103.80 535.34 98.80 533.75 93.78 C 535.60 93.59 537.47 93.41 539.34 93.22 C 538.97 92.54 538.24 91.16 537.87 90.47 C 535.75 90.82 533.62 91.17 531.51 91.54 C 532.29 86.43 529.77 81.75 528.67 76.90 C 528.69 76.46 528.73 75.58 528.74 75.14 C 528.20 75.08 527.10 74.95 526.55 74.89 C 526.67 68.08 522.97 62.09 521.57 55.58 L 521.51 55.37 Z" />
<path fill="#3895cd" d=" M 42.00 57.78 C 45.59 57.92 46.53 53.01 50.02 53.87 C 50.14 69.93 50.27 86.01 49.65 102.07 C 43.12 105.33 36.22 107.82 29.49 110.64 C 29.44 109.92 29.35 108.49 29.31 107.77 C 34.85 105.25 38.89 100.51 44.19 97.55 C 39.74 98.18 36.67 93.84 32.89 92.17 C 31.36 92.84 29.83 93.50 28.30 94.17 C 26.76 92.15 25.23 90.12 23.72 88.07 C 27.83 84.69 31.98 81.37 36.20 78.13 C 34.81 78.43 33.43 78.78 32.05 79.11 C 33.04 77.12 34.01 75.12 35.02 73.14 C 35.20 72.74 35.56 71.93 35.74 71.53 C 37.70 66.89 39.79 62.31 42.00 57.78 Z" />
<path fill="#479fd6" d=" M 50.02 53.87 C 62.34 55.97 74.75 57.58 87.10 59.51 C 90.98 60.18 95.04 60.26 98.70 61.86 C 94.18 72.66 88.25 82.79 82.87 93.18 C 80.05 91.80 77.23 90.43 74.43 89.03 C 73.35 90.82 72.24 92.58 71.08 94.32 C 69.03 94.35 66.99 94.39 64.94 94.42 C 63.77 93.18 62.59 91.93 61.42 90.69 C 59.97 92.75 58.53 94.81 57.07 96.86 C 58.35 97.72 59.62 98.58 60.90 99.44 C 59.07 101.26 57.04 102.84 54.86 104.20 C 53.30 103.09 51.71 101.78 49.65 102.07 C 50.27 86.01 50.14 69.93 50.02 53.87 Z" />
<path fill="#68b3da" d=" M 214.10 54.81 C 219.16 53.90 221.96 59.28 224.71 62.59 C 227.19 62.78 229.69 63.02 232.09 63.72 C 232.22 65.21 232.34 66.70 232.45 68.19 C 234.76 66.58 237.19 64.81 237.78 61.86 C 234.66 61.16 231.54 60.44 228.39 59.85 C 230.08 57.95 231.67 54.22 234.81 55.21 C 239.83 57.30 245.08 59.16 249.43 62.52 C 249.16 63.05 248.63 64.13 248.36 64.66 C 249.27 65.50 250.19 66.34 251.10 67.18 C 250.37 68.39 249.64 69.61 248.90 70.81 C 245.48 71.51 242.06 72.22 238.70 73.13 C 242.76 75.39 247.33 76.52 251.43 78.72 C 250.32 80.13 249.70 82.17 248.03 83.02 C 246.95 82.37 246.20 81.32 245.31 80.46 C 242.43 81.15 239.57 81.85 236.69 82.54 C 235.75 80.75 234.73 79.00 233.91 77.15 C 233.61 76.36 233.32 75.56 233.02 74.77 C 226.81 71.78 220.45 69.12 214.12 66.41 C 213.65 63.18 213.14 59.95 212.62 56.73 C 212.99 56.25 213.73 55.29 214.10 54.81 Z" />
<path fill="#449ccd" d=" M 320.27 55.96 C 323.92 55.78 327.38 57.18 330.82 58.21 C 337.60 60.38 344.43 62.41 351.27 64.43 C 344.54 72.85 337.14 80.72 330.58 89.27 C 325.45 83.23 318.46 78.18 316.45 70.12 C 317.14 68.88 317.84 67.64 318.54 66.40 C 317.52 66.04 316.50 65.67 315.49 65.30 C 316.04 61.72 315.68 56.85 320.27 55.96 Z" />
<path fill="#e22c8a" d=" M 874.86 54.96 C 886.47 56.69 898.01 58.82 909.60 60.68 C 911.50 60.86 912.87 62.25 914.30 63.36 C 915.43 61.68 916.59 60.02 917.80 58.38 C 919.07 58.53 920.36 58.67 921.66 58.80 C 920.04 68.72 919.24 78.75 917.38 88.63 L 917.35 88.79 C 914.16 89.31 910.98 89.90 907.82 90.49 C 907.21 86.90 904.21 84.64 901.78 82.26 C 896.95 78.05 893.12 72.91 888.76 68.26 C 884.14 63.82 879.90 58.95 874.86 54.96 Z" />
<path fill="#641559" d=" M 508.58 61.65 C 512.64 59.12 517.18 57.46 521.57 55.58 C 522.97 62.09 526.67 68.08 526.55 74.89 C 525.01 74.84 523.47 74.80 521.94 74.74 C 521.34 76.71 521.20 79.20 519.15 80.29 C 516.18 82.61 511.32 83.11 510.31 87.30 C 512.31 88.07 513.86 89.51 514.90 91.38 L 513.21 91.30 C 505.57 86.32 498.71 79.92 490.16 76.46 C 496.36 71.60 502.37 66.49 508.58 61.65 Z" />
<path fill="#217fbd" d=" M 28.06 60.97 C 32.64 59.67 37.31 58.62 42.00 57.78 C 39.79 62.31 37.70 66.89 35.74 71.53 C 31.85 69.62 28.01 67.58 24.27 65.38 C 23.91 63.30 26.45 61.82 28.06 60.97 Z" />
<path fill="#6bb6e5" d=" M 123.30 59.89 C 124.46 59.50 125.62 59.09 126.78 58.68 C 127.56 59.61 128.36 60.54 129.16 61.47 C 141.10 74.85 152.04 89.10 163.88 102.56 C 164.12 102.81 164.60 103.33 164.84 103.59 L 165.29 103.99 C 155.50 108.58 145.79 113.35 136.08 118.13 C 132.36 120.29 127.81 121.27 125.05 124.81 C 123.48 121.00 121.18 117.57 119.40 113.87 C 122.10 110.12 120.90 105.29 121.02 101.00 C 120.54 93.62 122.42 86.35 122.09 78.98 C 121.82 72.60 122.00 66.17 123.30 59.89 Z" />
<path fill="#ef3396" d=" M 921.66 58.80 C 922.32 58.99 923.65 59.36 924.31 59.54 C 926.88 68.33 928.51 77.37 930.28 86.34 C 925.99 87.16 921.69 87.99 917.38 88.63 C 919.24 78.75 920.04 68.72 921.66 58.80 Z" />
<path fill="#61b1e2" d=" M 104.97 60.24 C 111.07 59.98 117.19 59.79 123.30 59.89 C 122.00 66.17 121.82 72.60 122.09 78.98 C 122.42 86.35 120.54 93.62 121.02 101.00 C 120.90 105.29 122.10 110.12 119.40 113.87 C 118.63 112.53 117.87 111.18 117.12 109.83 C 117.87 112.36 118.61 115.18 116.78 117.46 C 114.98 116.11 111.86 115.55 111.50 112.97 C 111.06 110.87 110.78 108.76 110.44 106.65 C 109.00 105.93 107.57 105.22 106.15 104.49 C 107.94 96.48 106.28 88.24 107.35 80.15 C 108.13 74.01 108.34 67.81 107.78 61.64 C 107.18 61.33 105.96 60.73 105.36 60.43 L 104.97 60.24 Z" />
<path fill="#a3d2ef" d=" M 129.16 61.47 C 130.66 60.67 132.12 59.38 133.96 59.78 C 140.64 60.36 147.49 60.57 153.71 63.37 C 154.03 62.95 154.66 62.11 154.98 61.69 C 155.84 60.93 156.73 60.21 157.63 59.48 C 160.01 71.13 161.83 82.88 163.56 94.64 C 163.88 97.27 163.81 99.92 163.88 102.56 C 152.04 89.10 141.10 74.85 129.16 61.47 Z" />
<path fill="#e83c9e" d=" M 924.31 59.54 C 928.72 59.48 932.95 60.29 936.77 62.53 C 940.77 65.84 937.69 71.25 938.96 75.61 C 937.60 76.48 936.26 77.36 934.92 78.23 C 936.15 80.43 937.39 82.63 938.62 84.84 C 935.83 85.34 933.06 85.85 930.28 86.34 C 928.51 77.37 926.88 68.33 924.31 59.54 Z" />
<path fill="#5aace0" d=" M 100.12 63.11 C 101.86 62.21 103.61 61.32 105.36 60.43 C 105.96 60.73 107.18 61.33 107.78 61.64 C 108.34 67.81 108.13 74.01 107.35 80.15 C 106.28 88.24 107.94 96.48 106.15 104.49 C 98.38 100.74 90.62 96.97 82.87 93.18 C 88.25 82.79 94.18 72.66 98.70 61.86 C 99.06 62.17 99.77 62.80 100.12 63.11 Z" />
<path fill="#5fafd9" d=" M 204.06 66.48 C 204.60 63.81 206.80 62.17 208.79 60.57 C 209.09 61.96 209.36 63.35 209.73 64.73 C 210.44 65.81 211.27 66.80 212.08 67.81 C 212.59 67.46 213.61 66.76 214.12 66.41 C 220.45 69.12 226.81 71.78 233.02 74.77 C 233.32 75.56 233.61 76.36 233.91 77.15 C 233.47 78.64 232.87 80.06 232.12 81.42 C 230.39 81.08 228.65 80.74 226.93 80.40 C 223.37 82.57 219.90 84.98 216.99 87.98 C 216.79 89.30 216.72 90.63 216.77 91.97 C 207.85 87.20 198.41 83.53 189.10 79.62 C 193.94 75.09 198.02 69.52 204.06 66.48 Z" />
<path fill="#8c215b" d=" M 579.80 65.07 C 581.62 63.07 584.66 64.05 587.06 63.66 C 586.82 65.59 586.59 67.53 586.37 69.46 C 594.26 67.91 602.27 66.84 610.01 64.61 C 612.62 64.34 615.25 64.51 617.88 64.58 C 618.46 70.72 619.37 76.83 619.67 83.00 C 619.57 83.23 619.38 83.69 619.28 83.93 C 609.49 83.97 599.84 85.95 590.06 86.06 L 589.41 86.11 C 584.64 80.85 578.90 76.61 573.77 71.72 C 575.19 71.17 576.61 70.61 578.02 70.04 C 578.67 70.82 579.32 71.62 579.98 72.41 C 579.86 69.97 579.37 67.50 579.80 65.07 Z" />
<path fill="#3e99cc" d=" M 288.30 74.90 C 288.33 71.75 288.95 68.66 289.34 65.55 C 294.00 67.10 298.58 68.88 303.22 70.50 C 301.67 73.85 298.23 78.48 294.05 76.77 C 292.12 76.20 290.21 75.53 288.30 74.90 Z" />
<path fill="#bc2368" d=" M 685.47 69.98 C 691.88 68.72 698.24 67.20 704.68 66.08 C 713.17 74.27 722.57 81.44 731.31 89.36 C 731.31 89.79 731.33 90.65 731.33 91.07 C 722.24 94.75 714.04 100.23 705.01 104.04 C 683.24 115.03 661.33 125.78 639.64 136.92 L 638.90 137.41 C 638.84 137.14 638.72 136.59 638.66 136.32 C 637.41 130.67 634.80 125.46 632.96 120.01 C 628.58 107.65 623.95 95.38 619.67 83.00 C 626.14 82.82 632.33 80.78 638.65 79.58 C 654.27 76.45 669.84 73.08 685.47 69.98 Z" />
<path fill="#d7266a" d=" M 832.32 74.21 C 834.45 72.01 836.63 69.86 838.85 67.75 C 839.94 76.90 842.49 85.93 842.42 95.18 C 841.02 95.28 839.74 95.81 838.73 96.75 C 833.86 100.66 829.02 104.58 824.10 108.42 C 825.98 109.12 827.83 109.98 829.83 110.38 C 831.49 110.02 833.15 109.49 834.80 108.97 C 835.98 109.92 837.17 110.88 838.37 111.84 C 839.73 111.41 841.07 110.99 842.45 110.56 C 842.96 110.95 843.96 111.74 844.46 112.13 C 844.02 113.73 843.59 115.34 843.15 116.94 C 844.13 118.64 845.22 120.29 846.00 122.10 C 846.37 124.04 845.20 125.78 844.40 127.45 C 843.00 129.62 843.83 132.29 843.48 134.71 C 842.45 137.05 838.96 135.28 839.12 133.16 C 838.50 127.66 838.04 122.13 837.63 116.61 C 836.19 121.50 835.09 126.52 833.21 131.26 C 828.91 136.46 823.81 140.99 819.07 145.79 C 817.04 145.40 815.01 145.02 813.00 144.64 C 809.66 147.90 806.42 151.26 803.10 154.54 C 804.00 156.63 805.18 158.64 805.69 160.88 C 805.74 164.10 805.40 167.34 804.56 170.46 C 802.09 170.00 799.63 169.56 797.17 169.13 C 796.96 166.69 796.77 164.26 796.58 161.82 C 795.53 162.39 794.48 162.97 793.45 163.55 C 792.98 160.52 792.54 157.49 792.13 154.45 C 789.83 155.55 787.58 156.77 785.35 158.00 C 785.48 155.87 785.63 153.74 785.74 151.61 C 782.61 153.26 779.81 155.45 777.06 157.66 C 777.95 159.46 779.23 161.00 781.01 161.98 C 782.78 161.67 784.56 161.40 786.36 161.14 C 786.71 162.52 787.07 163.90 787.44 165.29 C 786.95 165.87 786.46 166.45 786.00 167.03 C 772.04 163.44 757.76 161.23 743.71 158.03 C 747.23 154.12 750.85 150.26 755.00 146.99 C 759.44 143.48 763.17 139.19 767.21 135.24 C 770.41 132.08 774.12 129.48 777.30 126.29 C 781.31 122.33 785.03 118.05 789.42 114.49 C 792.74 111.81 795.83 108.86 798.75 105.74 C 804.18 99.80 810.91 95.24 816.29 89.24 C 821.16 83.73 827.32 79.59 832.32 74.21 Z" />
<path fill="#207ebc" d=" M 18.73 74.51 C 22.51 73.57 25.46 70.87 29.15 69.71 C 31.07 70.68 33.16 71.30 35.01 72.40 L 35.02 73.14 C 34.01 75.12 33.04 77.12 32.05 79.11 C 28.60 78.97 25.15 78.77 21.71 78.55 C 20.72 77.20 19.72 75.85 18.73 74.51 Z" />
<path fill="#0460a8" d=" M 399.69 71.50 C 406.41 72.15 413.14 72.65 419.86 73.29 L 419.92 74.84 C 420.01 74.43 420.18 73.62 420.27 73.21 C 421.16 73.32 422.94 73.55 423.83 73.67 C 422.86 75.45 422.10 77.40 420.73 78.94 C 417.41 80.71 413.76 81.77 410.27 83.12 C 406.17 80.88 402.04 78.72 397.88 76.60 C 398.17 74.80 398.72 73.05 399.69 71.50 Z" />
<path fill="#3997cb" d=" M 289.35 84.73 C 288.80 81.91 288.84 79.03 289.55 76.24 C 293.29 77.70 295.84 82.28 293.17 85.86 C 292.22 85.58 290.31 85.01 289.35 84.73 Z" />
<path fill="#5c1158" d=" M 476.94 87.88 C 480.72 83.41 485.83 80.35 490.16 76.46 C 498.71 79.92 505.57 86.32 513.21 91.30 L 514.11 91.85 C 510.69 95.26 509.57 100.04 506.77 103.83 C 503.17 104.72 499.60 105.71 496.01 106.61 C 494.71 102.77 493.54 98.87 491.94 95.13 C 490.75 96.26 489.60 97.43 488.51 98.65 C 486.23 98.95 483.95 99.22 481.68 99.48 C 480.10 95.61 478.58 91.72 476.94 87.88 Z" />
<path fill="#631459" d=" M 522.09 81.10 C 524.11 79.36 526.45 78.04 528.53 76.36 L 528.67 76.90 C 529.77 81.75 532.29 86.43 531.51 91.54 C 528.89 91.97 526.27 92.41 523.65 92.86 C 522.44 91.25 521.23 89.64 520.03 88.03 C 520.66 85.73 520.69 83.12 522.09 81.10 Z" />
<path fill="#51aad7" d=" M 164.84 103.59 C 172.90 95.58 181.08 87.68 189.10 79.62 C 198.41 83.53 207.85 87.20 216.77 91.97 C 217.79 94.41 218.73 96.88 219.71 99.33 C 228.39 101.29 237.15 102.85 245.85 104.72 C 247.09 108.90 248.62 113.21 251.83 116.31 C 252.70 116.89 253.73 116.14 254.67 116.08 C 256.10 115.81 257.63 115.21 259.07 115.82 C 263.62 117.46 267.86 119.84 272.35 121.64 C 275.20 123.00 278.66 123.80 280.43 126.67 C 280.28 127.32 280.00 128.63 279.86 129.29 C 283.78 128.22 287.72 127.20 291.64 126.12 C 290.10 129.24 290.54 132.82 290.43 136.18 C 272.38 131.68 254.41 126.88 236.43 122.15 C 236.54 123.03 236.65 123.91 236.77 124.78 C 235.20 123.98 233.50 123.50 231.74 123.44 C 232.46 122.81 233.17 122.17 233.87 121.52 C 226.56 119.60 219.24 117.73 211.91 115.88 C 196.48 112.00 181.16 107.65 165.66 104.07 L 165.29 103.99 L 164.84 103.59 Z" />
<path fill="#aad4ea" d=" M 241.68 84.69 C 242.83 83.20 244.23 82.08 246.23 82.86 C 245.90 83.83 245.59 84.80 245.27 85.77 C 244.07 85.42 242.87 85.05 241.68 84.69 Z" />
<path fill="#9c1b59" d=" M 619.28 83.93 C 619.38 83.69 619.57 83.23 619.67 83.00 C 623.95 95.38 628.58 107.65 632.96 120.01 C 634.80 125.46 637.41 130.67 638.66 136.32 C 615.58 132.01 592.59 127.31 569.56 122.79 C 573.24 121.96 576.87 120.91 580.61 120.30 C 587.61 119.33 594.57 117.99 601.42 116.24 C 603.45 114.87 604.51 112.61 605.53 110.47 C 609.74 101.43 615.02 92.94 619.28 83.93 Z" />
<path fill="#5eafd9" d=" M 255.78 95.73 C 258.53 92.32 257.51 87.65 259.75 84.07 C 267.11 85.88 274.54 87.43 281.94 89.10 C 281.37 90.47 280.79 91.83 280.23 93.20 C 282.54 93.79 284.85 94.39 287.16 95.00 C 287.68 94.73 288.73 94.19 289.25 93.92 C 289.55 103.41 290.58 113.00 289.26 122.45 C 286.52 123.11 283.87 124.08 281.25 125.07 C 281.04 125.47 280.63 126.27 280.43 126.67 C 278.66 123.80 275.20 123.00 272.35 121.64 C 267.86 119.84 263.62 117.46 259.07 115.82 C 257.63 115.21 256.10 115.81 254.67 116.08 C 254.15 112.12 250.79 107.49 253.84 103.94 C 255.84 103.94 257.85 103.92 259.86 103.90 C 261.29 100.45 257.50 98.20 255.78 95.73 Z" />
<path fill="#7b134c" d=" M 590.06 86.06 C 599.84 85.95 609.49 83.97 619.28 83.93 C 615.02 92.94 609.74 101.43 605.53 110.47 C 604.51 112.61 603.45 114.87 601.42 116.24 C 599.29 110.10 597.23 103.94 594.52 98.04 C 592.74 94.16 591.36 90.12 590.06 86.06 Z" />
<path fill="#aed7eb" d=" M 251.50 85.16 C 253.49 84.28 253.68 87.55 251.93 87.84 C 250.10 88.35 249.82 85.49 251.50 85.16 Z" />
<path fill="#8a1e6b" d=" M 548.70 103.75 C 562.30 97.94 575.87 92.04 589.41 86.11 L 590.06 86.06 C 591.36 90.12 592.74 94.16 594.52 98.04 C 591.10 106.20 584.33 112.31 580.61 120.30 C 576.87 120.91 573.24 121.96 569.56 122.79 L 568.56 122.62 L 568.04 122.39 C 558.37 117.62 548.49 113.31 538.82 108.52 C 541.85 106.43 545.33 105.17 548.70 103.75 Z" />
<path fill="#a1618a" d=" M 546.20 88.16 C 547.57 88.08 549.89 89.33 549.66 90.90 C 548.16 91.58 545.96 89.68 546.20 88.16 Z" />
<path fill="#2f92c9" d=" M 289.22 93.39 C 290.88 92.39 292.43 89.18 294.61 90.41 C 297.58 94.55 299.70 99.23 302.39 103.55 C 304.34 103.93 306.34 104.12 308.23 104.78 C 310.21 106.12 311.81 107.94 313.56 109.56 C 309.78 113.76 305.95 117.93 302.75 122.60 C 300.14 123.82 298.13 125.92 295.88 127.65 C 295.57 126.17 295.28 124.69 294.98 123.22 C 293.02 123.46 291.09 123.15 289.26 122.45 C 290.58 113.00 289.55 103.41 289.25 93.92 L 289.22 93.39 Z" />
<path fill="#127dbd" d=" M 20.86 92.20 C 22.15 92.12 23.43 92.05 24.72 91.99 C 24.26 93.03 23.79 94.07 23.33 95.11 C 22.26 94.35 21.19 93.54 20.86 92.20 Z" />
<path fill="#5c1157" d=" M 525.60 94.47 C 528.32 94.28 531.03 94.04 533.75 93.78 C 535.34 98.80 537.03 103.80 538.31 108.93 C 538.03 109.16 537.47 109.62 537.20 109.85 C 522.97 118.54 509.68 128.64 495.75 137.79 C 492.88 139.51 489.94 141.37 488.41 144.48 C 487.56 143.90 486.70 143.32 485.86 142.74 C 483.95 143.97 481.98 145.10 479.96 146.13 C 478.06 145.62 476.16 145.12 474.27 144.62 C 473.14 146.58 472.58 149.13 470.46 150.29 C 468.74 151.54 466.35 152.22 465.45 154.32 C 463.66 158.24 460.71 161.48 457.63 164.43 C 455.78 165.43 453.45 164.98 451.40 165.29 C 450.47 166.48 449.54 167.66 448.60 168.83 C 447.65 167.60 446.73 166.38 445.79 165.16 C 444.10 164.96 442.41 164.76 440.73 164.56 C 439.79 163.33 438.85 162.12 437.91 160.90 C 439.06 154.63 438.69 147.96 441.14 142.01 C 447.01 141.97 452.88 141.70 458.75 141.57 C 459.13 139.52 459.52 137.48 459.88 135.43 C 456.93 133.17 453.99 130.89 451.08 128.58 C 455.43 124.96 461.56 125.11 466.64 122.99 C 467.90 120.87 468.87 118.12 471.50 117.39 C 476.44 115.50 481.42 113.68 486.37 111.80 C 485.83 110.99 485.29 110.18 484.75 109.38 C 484.93 106.98 485.07 104.53 486.14 102.34 C 488.28 101.66 490.41 100.93 492.54 100.20 C 492.93 102.82 491.66 106.95 494.42 108.45 C 501.81 108.98 509.27 108.28 516.69 108.41 C 516.75 104.30 519.88 101.45 522.19 98.42 C 523.49 98.51 524.79 98.60 526.10 98.70 C 525.39 97.97 524.67 97.24 523.97 96.51 C 524.38 96.00 525.20 94.98 525.60 94.47 Z" />
<path fill="#5c1157" d=" M 449.71 97.05 C 450.46 96.36 451.21 95.67 451.97 94.98 C 455.50 95.75 459.03 96.50 462.56 97.27 C 461.61 99.32 460.63 101.36 459.61 103.38 C 462.88 107.97 467.47 111.72 469.45 117.15 C 467.70 119.06 465.81 120.83 463.85 122.52 C 461.14 122.16 458.44 121.81 455.74 121.44 C 454.81 121.97 453.88 122.50 452.96 123.04 C 451.05 121.94 449.15 120.85 447.26 119.75 C 449.47 116.89 452.01 114.32 454.50 111.72 C 451.36 108.79 447.72 106.36 444.90 103.13 C 444.65 101.07 445.18 99.06 446.12 97.25 C 447.31 97.18 448.51 97.12 449.71 97.05 Z" />
<path fill="#85195d" d=" M 594.52 98.04 C 597.23 103.94 599.29 110.10 601.42 116.24 C 594.57 117.99 587.61 119.33 580.61 120.30 C 584.33 112.31 591.10 106.20 594.52 98.04 Z" />
<path fill="#e12974" d=" M 879.84 99.23 C 884.99 100.43 886.85 106.25 890.33 109.67 C 884.69 115.17 879.40 121.02 873.64 126.39 C 875.51 117.29 878.04 108.34 879.84 99.23 Z" />
<path fill="#1b8aca" d=" M 136.08 118.13 C 145.79 113.35 155.50 108.58 165.29 103.99 L 165.66 104.07 C 168.12 109.74 171.82 114.72 174.91 120.04 C 187.92 141.09 200.91 162.15 213.91 183.20 C 214.83 184.75 215.27 186.52 215.66 188.27 C 211.30 188.05 209.31 193.03 206.15 195.32 C 205.86 198.42 206.83 201.88 205.11 204.68 C 205.21 206.77 205.40 208.85 205.65 210.93 C 205.61 214.88 208.69 217.84 211.36 220.34 C 214.50 220.78 217.69 220.73 220.85 220.94 C 222.41 218.37 223.95 215.77 225.41 213.14 C 227.62 212.87 229.84 212.65 232.07 212.42 C 232.53 212.95 233.45 214.00 233.91 214.53 C 231.64 219.59 229.94 224.92 230.55 230.55 C 233.37 231.55 236.14 230.58 238.76 229.46 C 240.02 230.16 241.29 230.86 242.57 231.55 C 245.29 236.02 242.62 241.09 242.73 245.86 C 243.45 248.92 246.26 250.48 248.83 251.80 C 248.54 252.33 247.96 253.38 247.68 253.91 C 247.51 254.22 247.19 254.84 247.02 255.15 C 235.55 246.70 224.24 238.04 212.82 229.53 C 211.55 230.48 210.28 231.43 209.01 232.39 C 207.71 231.60 206.41 230.80 205.11 230.02 C 202.99 230.20 200.88 230.39 198.77 230.58 C 187.05 215.21 175.36 199.82 163.69 184.42 C 162.92 183.37 161.90 182.58 160.85 181.86 C 162.09 185.09 165.37 186.92 166.99 189.96 C 170.02 193.81 171.67 198.46 174.17 202.62 L 172.08 202.32 C 173.79 203.94 175.88 205.67 174.82 208.34 C 169.34 204.87 164.42 200.57 159.37 196.50 C 159.79 194.51 160.56 192.40 159.41 190.50 C 150.12 169.79 140.82 149.09 131.57 128.37 C 129.34 127.29 127.13 126.16 125.05 124.81 C 127.81 121.27 132.36 120.29 136.08 118.13 Z" />
<path fill="#0e7bbe" d=" M 165.66 104.07 C 181.16 107.65 196.48 112.00 211.91 115.88 C 221.46 133.28 231.77 150.24 241.46 167.56 C 244.26 172.77 247.93 177.59 249.51 183.37 C 250.57 189.37 255.06 196.72 249.36 201.73 C 247.07 197.41 244.99 192.98 242.68 188.66 C 240.44 188.22 238.65 186.81 236.99 185.33 C 233.05 186.61 228.57 186.74 225.18 189.33 C 222.00 189.09 218.81 188.83 215.66 188.27 C 215.27 186.52 214.83 184.75 213.91 183.20 C 200.91 162.15 187.92 141.09 174.91 120.04 C 171.82 114.72 168.12 109.74 165.66 104.07 Z" />
<path fill="#5c1157" d=" M 438.08 109.14 C 440.45 106.59 443.89 104.36 447.41 106.20 C 447.73 108.73 448.84 111.32 448.37 113.86 C 445.60 116.65 441.81 118.09 438.51 120.13 C 436.38 116.84 436.11 112.57 438.08 109.14 Z" />
<path fill="#851a56" d=" M 538.31 108.93 L 538.82 108.52 C 548.49 113.31 558.37 117.62 568.04 122.39 L 567.84 123.26 C 562.66 128.89 557.15 134.23 552.48 140.31 L 551.65 140.71 C 550.11 138.39 548.59 136.06 547.08 133.73 C 543.55 135.33 541.94 138.92 539.76 141.85 C 537.41 144.52 538.28 148.34 537.90 151.59 C 539.28 151.40 540.67 151.21 542.07 151.02 C 538.89 154.53 535.54 157.89 532.61 161.62 L 532.54 161.71 C 532.33 158.66 532.02 155.61 531.69 152.57 C 529.61 152.97 527.66 153.79 525.89 154.95 C 527.09 156.59 528.18 158.31 529.18 160.09 C 526.30 163.69 522.26 166.03 518.67 168.83 C 517.49 163.89 518.35 157.71 513.48 154.58 C 518.05 148.17 520.92 140.78 524.91 134.02 C 528.92 125.92 533.37 118.04 537.20 109.85 C 537.47 109.62 538.03 109.16 538.31 108.93 Z" />
<path fill="#2f8ec9" d=" M 22.65 109.37 C 23.76 111.13 23.22 113.25 23.24 115.21 C 20.98 115.64 18.71 116.03 16.42 116.32 C 17.16 114.71 18.91 114.20 20.22 113.21 C 21.18 112.04 21.83 110.64 22.65 109.37 Z" />
<path fill="#117abb" d=" M 313.56 109.56 C 314.92 110.88 316.27 112.20 317.61 113.55 C 316.44 115.92 315.29 118.31 314.16 120.71 C 316.57 121.97 319.08 123.09 321.34 124.63 C 323.18 125.96 323.34 128.45 324.09 130.44 C 323.67 130.86 322.81 131.70 322.38 132.12 C 317.73 132.00 313.07 132.08 308.45 131.52 C 308.10 131.02 307.39 130.04 307.04 129.54 C 308.14 125.96 309.31 122.40 310.67 118.91 C 308.69 121.36 305.77 122.33 302.75 122.60 C 305.95 117.93 309.78 113.76 313.56 109.56 Z" />
<path fill="#661154" d=" M 495.75 137.79 C 509.68 128.64 522.97 118.54 537.20 109.85 C 533.37 118.04 528.92 125.92 524.91 134.02 C 520.92 140.78 518.05 148.17 513.48 154.58 C 512.96 154.06 511.93 153.01 511.41 152.49 L 511.68 154.63 C 511.20 154.71 510.22 154.88 509.74 154.96 C 509.92 156.79 510.11 158.61 510.32 160.44 C 509.50 161.23 508.68 162.02 507.87 162.81 C 507.40 162.57 506.46 162.09 505.99 161.84 C 505.16 163.67 503.92 165.25 501.81 165.60 C 500.15 163.84 498.42 162.15 496.48 160.72 C 496.93 160.31 497.83 159.49 498.28 159.08 C 500.86 159.51 503.43 160.06 505.97 160.71 C 504.66 158.47 503.85 155.85 502.09 153.92 C 497.64 150.63 492.94 147.67 488.41 144.48 C 489.94 141.37 492.88 139.51 495.75 137.79 Z" />
<path fill="#127dbd" d=" M 0.00 115.95 L 0.01 116.77 C 3.01 116.06 6.11 115.80 9.00 117.05 C 7.37 117.66 5.73 118.26 4.09 118.85 C 2.72 118.24 1.35 117.62 0.00 116.97 L 0.00 115.95 Z" />
<path fill="#1282c2" d=" M 211.91 115.88 C 219.24 117.73 226.56 119.60 233.87 121.52 C 233.17 122.17 232.46 122.81 231.74 123.44 C 229.32 124.97 226.83 126.38 224.40 127.90 C 229.49 128.45 234.61 128.76 239.72 129.05 C 239.70 127.08 238.22 125.85 236.77 124.78 C 236.65 123.91 236.54 123.03 236.43 122.15 C 254.41 126.88 272.38 131.68 290.43 136.18 C 290.54 132.82 290.10 129.24 291.64 126.12 C 292.30 125.99 293.62 125.72 294.27 125.59 C 293.99 127.88 293.80 130.19 293.31 132.45 C 294.06 132.62 294.82 132.68 295.60 132.61 C 296.30 132.11 297.00 131.62 297.71 131.13 C 298.17 132.25 298.63 133.38 299.09 134.51 C 301.08 134.63 302.78 133.78 304.31 132.59 C 305.10 134.01 306.44 135.27 306.62 136.95 C 305.76 139.73 302.79 140.31 300.42 141.19 C 300.44 140.69 300.48 139.69 300.51 139.18 C 297.36 138.11 294.19 137.13 290.99 136.25 C 292.05 138.64 293.12 141.03 294.21 143.41 C 292.51 144.04 290.81 144.67 289.12 145.30 C 288.52 143.61 287.93 141.93 287.33 140.25 C 284.19 141.60 281.04 142.95 277.90 144.29 C 278.51 146.17 279.15 148.05 279.81 149.91 C 279.56 150.39 279.04 151.35 278.78 151.83 C 275.58 152.27 272.39 152.71 269.20 153.14 C 267.71 155.48 266.09 157.75 264.80 160.22 C 263.61 162.61 266.03 165.83 263.89 167.88 C 259.21 173.15 253.55 177.53 249.51 183.37 C 247.93 177.59 244.26 172.77 241.46 167.56 C 231.77 150.24 221.46 133.28 211.91 115.88 Z" />
<path fill="#995ecc" d=" M 568.04 122.39 L 568.56 122.62 C 576.65 144.00 584.48 165.49 592.30 186.98 C 581.63 188.61 570.93 189.92 560.23 191.33 C 559.63 192.13 559.03 192.92 558.44 193.72 L 558.42 193.74 C 557.23 193.21 555.99 192.85 554.70 192.65 C 554.71 192.37 554.73 191.82 554.73 191.54 C 554.76 191.22 554.81 190.56 554.83 190.24 C 558.51 176.56 560.54 162.48 563.18 148.57 C 566.17 148.76 569.15 149.07 572.15 149.28 C 571.31 144.16 566.49 141.74 563.00 138.58 C 563.59 138.26 564.75 137.62 565.34 137.31 C 566.58 132.70 567.27 127.99 567.84 123.26 L 568.04 122.39 Z" />
<path fill="#be4c7f" d=" M 568.56 122.62 L 569.56 122.79 C 592.59 127.31 615.58 132.01 638.66 136.32 C 638.72 136.59 638.84 137.14 638.90 137.41 C 624.31 153.27 610.22 169.58 595.64 185.45 C 594.97 186.13 594.17 186.58 593.25 186.78 L 592.30 186.98 C 584.48 165.49 576.65 144.00 568.56 122.62 Z" />
<path fill="#ffffff" d=" M 224.40 127.90 C 226.83 126.38 229.32 124.97 231.74 123.44 C 233.50 123.50 235.20 123.98 236.77 124.78 C 238.22 125.85 239.70 127.08 239.72 129.05 C 234.61 128.76 229.49 128.45 224.40 127.90 Z" />
<path fill="#824dce" d=" M 552.48 140.31 C 557.15 134.23 562.66 128.89 567.84 123.26 C 567.27 127.99 566.58 132.70 565.34 137.31 C 564.75 137.62 563.59 138.26 563.00 138.58 C 562.52 138.16 561.57 137.34 561.09 136.93 C 561.53 135.86 561.97 134.79 562.41 133.71 C 558.35 134.85 556.54 139.23 552.48 140.31 Z" />
<path fill="#ffffff" d=" M 599.47 130.95 C 602.57 132.02 605.88 133.29 606.97 136.73 C 604.55 136.68 602.13 136.59 599.72 136.49 C 598.60 138.03 597.52 139.60 596.48 141.20 C 599.33 144.11 602.35 146.87 605.08 149.90 C 602.67 154.34 605.34 158.91 606.53 163.26 C 601.91 162.21 596.67 162.99 592.44 160.76 C 590.28 156.51 596.11 154.91 597.89 151.89 C 594.03 148.00 589.46 144.68 586.62 139.90 C 587.15 138.08 587.69 136.25 588.26 134.44 C 590.52 134.44 592.79 134.44 595.06 134.44 C 596.53 133.28 598.00 132.12 599.47 130.95 Z" />
<path fill="#ffffff" d=" M 233.87 135.19 C 236.26 133.68 238.88 132.40 241.79 133.15 C 242.38 133.78 242.97 134.42 243.57 135.05 C 241.08 136.06 237.85 136.82 236.61 139.49 C 235.94 142.42 235.79 145.44 235.17 148.39 C 232.92 144.34 233.34 139.61 233.87 135.19 Z" />
<path fill="#ffffff" d=" M 247.28 143.44 C 245.39 140.37 244.96 136.69 244.61 133.18 C 246.39 133.48 248.17 133.77 249.96 134.06 C 249.30 137.25 248.39 140.38 247.28 143.44 Z" />
<path fill="#ffffff" d=" M 539.76 141.85 C 541.94 138.92 543.55 135.33 547.08 133.73 C 548.59 136.06 550.11 138.39 551.65 140.71 L 552.48 140.31 C 556.54 139.23 558.35 134.85 562.41 133.71 C 561.97 134.79 561.53 135.86 561.09 136.93 C 561.57 137.34 562.52 138.16 563.00 138.58 C 566.49 141.74 571.31 144.16 572.15 149.28 C 569.15 149.07 566.17 148.76 563.18 148.57 C 556.07 148.44 549.11 150.23 542.07 151.02 C 540.67 151.21 539.28 151.40 537.90 151.59 C 538.28 148.34 537.41 144.52 539.76 141.85 Z" />
<path fill="#086bb1" d=" M 290.99 136.25 C 294.19 137.13 297.36 138.11 300.51 139.18 C 300.48 139.69 300.44 140.69 300.42 141.19 C 298.34 141.92 296.27 142.67 294.21 143.41 C 293.12 141.03 292.05 138.64 290.99 136.25 Z" />
<path fill="#d64478" d=" M 638.90 137.41 L 639.64 136.92 C 644.19 144.69 649.68 151.84 654.57 159.39 C 659.91 167.29 665.06 175.33 670.57 183.12 C 663.06 192.82 654.19 201.35 646.54 210.91 C 643.67 207.15 640.81 203.39 637.94 199.63 C 636.92 200.32 635.93 201.03 634.94 201.74 C 629.51 201.79 624.09 201.76 618.67 201.60 C 616.95 199.54 615.17 197.55 613.31 195.63 C 611.37 196.45 609.43 197.23 607.48 197.97 C 603.62 193.71 599.55 189.65 595.64 185.45 C 610.22 169.58 624.31 153.27 638.90 137.41 Z" />
<path fill="#e4484d" d=" M 639.64 136.92 C 674.32 144.00 709.00 151.06 743.71 158.03 C 757.76 161.23 772.04 163.44 786.00 167.03 C 784.56 167.98 783.13 168.93 781.70 169.89 C 784.88 175.05 786.02 181.10 787.19 186.96 C 786.60 193.74 780.53 197.72 776.73 202.73 C 774.20 206.18 770.00 207.44 766.33 209.25 C 762.91 210.87 759.48 212.46 756.13 214.20 C 756.63 215.56 757.13 216.91 757.66 218.26 C 756.40 220.62 755.03 222.92 753.57 225.15 C 752.30 223.80 751.06 222.43 749.85 221.04 C 750.69 218.53 751.52 216.01 752.17 213.44 C 751.37 213.18 749.75 212.65 748.94 212.39 C 747.53 213.91 746.13 215.43 744.75 216.97 C 747.41 221.18 750.08 225.39 752.80 229.57 L 751.15 229.54 C 752.45 231.97 753.61 234.47 754.65 237.02 C 753.71 239.95 752.80 242.89 751.88 245.82 C 749.84 247.11 747.44 248.00 745.80 249.81 C 744.16 252.58 742.78 255.52 740.86 258.13 C 738.12 252.35 735.34 246.58 732.73 240.74 C 731.37 240.34 730.00 239.95 728.66 239.56 C 728.04 242.42 727.42 245.27 726.74 248.12 C 725.29 241.81 723.78 235.51 722.24 229.23 C 721.34 229.00 719.54 228.55 718.64 228.32 C 716.54 231.62 714.73 235.08 712.62 238.37 C 709.74 228.78 706.96 219.17 704.12 209.57 C 700.06 211.14 695.97 212.63 692.00 214.39 C 684.42 204.27 677.93 193.39 670.57 183.12 C 665.06 175.33 659.91 167.29 654.57 159.39 C 649.68 151.84 644.19 144.69 639.64 136.92 Z" />
<path fill="#ffffff" d=" M 496.82 138.04 C 501.78 142.54 506.31 147.50 511.14 152.13 C 504.93 149.24 500.63 143.52 496.82 138.04 Z" />
<path fill="#d92665" d=" M 832.66 147.34 C 835.07 143.91 837.62 140.55 840.54 137.53 C 844.03 139.47 847.63 141.23 851.14 143.15 C 850.29 144.26 849.77 145.99 848.07 145.84 C 843.98 146.29 839.87 147.22 835.75 146.71 C 835.83 147.17 836.01 148.09 836.09 148.55 L 837.24 148.16 C 838.40 151.01 839.11 154.00 839.68 157.01 C 837.63 159.52 836.64 162.55 837.01 165.80 C 832.81 169.96 826.98 171.92 822.02 175.02 C 821.58 174.81 820.70 174.39 820.25 174.18 C 817.61 173.09 814.85 172.35 812.12 171.54 C 817.78 168.62 823.79 166.32 829.22 163.02 C 831.30 158.47 831.85 153.32 834.49 149.01 C 833.88 148.44 833.27 147.89 832.66 147.34 Z" />
<path fill="#824dce" d=" M 542.07 151.02 C 549.11 150.23 556.07 148.44 563.18 148.57 C 560.54 162.48 558.51 176.56 554.83 190.24 C 553.52 187.54 552.03 184.94 550.57 182.32 C 551.16 182.03 552.35 181.44 552.94 181.14 C 554.54 176.69 556.13 172.24 557.69 167.78 C 549.33 165.71 540.94 163.81 532.61 161.62 C 535.54 157.89 538.89 154.53 542.07 151.02 Z" />
<path fill="#651154" d=" M 484.78 156.66 C 485.49 154.32 486.34 152.01 487.65 149.94 C 488.53 150.89 489.65 151.68 490.25 152.86 C 490.14 154.58 488.80 155.78 487.86 157.09 C 487.09 156.98 485.55 156.77 484.78 156.66 Z" />
<path fill="#8e5788" d=" M 471.25 153.13 C 473.91 152.31 473.07 156.61 470.83 156.13 C 469.06 155.87 470.12 153.52 471.25 153.13 Z" />
<path fill="#f57b2b" d=" M 458.53 166.80 C 461.61 165.94 464.80 165.72 467.98 165.80 C 477.33 165.97 486.66 165.40 496.01 165.25 C 494.63 166.98 493.24 168.67 491.79 170.33 C 493.03 172.05 493.91 174.29 495.98 175.20 C 499.74 177.07 503.61 178.73 507.38 180.59 C 510.43 182.02 513.51 183.86 517.01 183.69 C 518.07 182.80 518.81 181.60 519.68 180.53 C 524.33 183.39 529.49 185.21 534.81 186.34 C 535.11 186.42 535.71 186.59 536.01 186.68 C 542.11 188.79 548.36 190.46 554.73 191.54 C 554.73 191.82 554.71 192.37 554.70 192.65 C 555.94 197.41 558.14 201.85 559.70 206.51 C 556.43 209.98 551.84 211.52 547.70 213.64 C 541.98 216.55 536.11 219.19 530.66 222.60 C 529.92 222.60 529.19 222.60 528.46 222.59 C 524.95 221.70 521.48 220.65 517.94 219.86 C 518.40 219.50 519.30 218.78 519.76 218.42 C 516.00 214.15 511.73 210.36 507.85 206.20 C 505.57 203.79 503.78 200.94 501.26 198.76 C 499.80 197.20 497.63 198.36 495.94 198.83 C 488.86 201.72 482.08 205.34 474.82 207.81 C 469.68 209.46 464.50 210.96 459.27 212.27 C 454.83 211.26 450.47 210.00 446.05 208.96 C 441.00 207.67 435.74 206.93 431.09 204.45 C 434.17 198.11 437.36 191.80 440.17 185.33 L 440.30 185.39 C 442.16 186.23 444.03 187.06 445.90 187.90 L 446.31 187.21 C 450.65 180.58 455.27 174.06 458.53 166.80 Z" />
<path fill="#ee6419" d=" M 448.37 169.34 C 451.64 168.09 455.15 167.66 458.53 166.80 C 455.27 174.06 450.65 180.58 446.31 187.21 C 445.42 184.52 444.30 181.92 443.19 179.32 C 444.91 176.00 446.12 172.36 448.37 169.34 Z" />
<path fill="#e34a55" d=" M 797.17 169.13 C 799.63 169.56 802.09 170.00 804.56 170.46 C 802.70 172.53 800.22 173.43 797.47 172.90 C 797.36 171.64 797.26 170.39 797.17 169.13 Z" />
<path fill="#e4484e" d=" M 805.26 175.66 C 807.21 173.78 809.67 172.63 812.12 171.54 C 814.85 172.35 817.61 173.09 820.25 174.18 C 818.68 176.73 816.09 178.16 813.07 177.95 C 811.79 179.36 810.42 180.68 809.00 181.94 C 807.75 179.85 806.50 177.75 805.26 175.66 Z" />
<path fill="#eb5a11" d=" M 519.68 180.53 C 520.73 179.05 521.86 177.62 523.01 176.21 C 528.79 177.26 534.57 178.39 540.36 179.43 C 538.72 181.89 536.89 184.23 534.81 186.34 C 529.49 185.21 524.33 183.39 519.68 180.53 Z" />
<path fill="#f04c0e" d=" M 443.19 179.32 C 444.30 181.92 445.42 184.52 446.31 187.21 L 445.90 187.90 C 444.03 187.06 442.16 186.23 440.30 185.39 C 441.25 183.36 442.21 181.34 443.19 179.32 Z" />
<path fill="#f06019" d=" M 535.22 186.42 C 538.93 184.13 542.75 182.04 546.58 179.96 C 547.90 180.76 549.23 181.55 550.57 182.32 C 552.03 184.94 553.52 187.54 554.83 190.24 C 554.81 190.56 554.76 191.22 554.73 191.54 C 548.36 190.46 542.11 188.79 536.01 186.68 L 535.22 186.42 Z" />
<path fill="#dc406d" d=" M 670.57 183.12 C 677.93 193.39 684.42 204.27 692.00 214.39 C 687.60 220.92 681.26 225.83 676.45 231.99 C 675.74 236.52 676.24 241.15 675.52 245.68 C 673.45 249.84 670.63 253.60 668.20 257.57 C 663.87 242.35 659.58 227.12 655.31 211.89 C 653.63 213.20 651.93 214.47 650.13 215.61 C 648.93 214.04 647.74 212.47 646.54 210.91 C 654.19 201.35 663.06 192.82 670.57 183.12 Z" />
<path fill="#7a41ce" d=" M 560.23 191.33 C 570.93 189.92 581.63 188.61 592.30 186.98 L 593.25 186.78 L 592.75 187.26 L 592.10 187.87 C 587.49 191.72 584.01 196.65 579.76 200.86 C 575.52 205.40 571.24 209.93 567.62 214.99 C 564.62 207.87 561.24 200.92 558.44 193.72 C 559.03 192.92 559.63 192.13 560.23 191.33 Z" />
<path fill="#642ecc" d=" M 579.76 200.86 C 584.01 196.65 587.49 191.72 592.10 187.87 C 589.41 198.80 587.08 209.81 584.25 220.70 C 581.86 226.80 581.11 233.39 578.56 239.43 C 574.70 231.38 571.37 223.10 567.62 214.99 C 571.24 209.93 575.52 205.40 579.76 200.86 Z" />
<path fill="#571fb1" d=" M 592.10 187.87 L 592.75 187.26 C 596.27 192.83 599.90 198.33 603.53 203.82 C 607.31 209.41 610.80 215.20 614.91 220.56 C 614.16 213.13 613.38 205.71 612.27 198.33 L 612.19 197.84 C 615.79 201.09 619.41 204.32 623.08 207.49 C 620.73 212.03 618.34 216.55 615.89 221.03 C 614.44 224.05 610.86 224.68 608.18 226.19 C 598.17 230.73 588.50 236.11 578.28 240.16 L 578.56 239.43 C 581.11 233.39 581.86 226.80 584.25 220.70 C 587.08 209.81 589.41 198.80 592.10 187.87 Z" />
<path fill="#f78a36" d=" M 495.94 198.83 C 497.63 198.36 499.80 197.20 501.26 198.76 C 503.78 200.94 505.57 203.79 507.85 206.20 C 511.73 210.36 516.00 214.15 519.76 218.42 C 519.30 218.78 518.40 219.50 517.94 219.86 C 513.89 218.83 510.26 216.56 506.13 215.74 C 500.98 214.58 495.87 213.27 490.88 211.55 C 485.60 210.02 480.26 208.64 474.82 207.81 C 482.08 205.34 488.86 201.72 495.94 198.83 Z" />
<path fill="#790ff4" d=" M 603.53 203.82 C 606.41 201.94 609.32 200.10 612.27 198.33 C 613.38 205.71 614.16 213.13 614.91 220.56 C 610.80 215.20 607.31 209.41 603.53 203.82 Z" />
<path fill="#e5474b" d=" M 782.01 210.19 C 782.70 206.80 782.81 202.96 785.15 200.20 C 787.60 199.52 786.85 202.56 786.58 203.99 C 785.62 206.41 783.65 208.24 782.01 210.19 Z" />
<path fill="#f28531" d=" M 422.05 223.54 C 425.04 217.16 428.04 210.80 431.09 204.45 C 435.74 206.93 441.00 207.67 446.05 208.96 C 450.47 210.00 454.83 211.26 459.27 212.27 C 447.62 216.37 435.54 219.01 423.85 222.93 L 422.05 223.54 Z" />
<path fill="#eb882d" d=" M 559.70 206.51 L 559.88 206.34 C 561.75 210.64 559.73 215.51 561.68 219.73 C 561.63 220.21 561.53 221.15 561.48 221.62 C 562.76 223.13 564.01 224.66 565.24 226.23 C 564.14 226.19 561.94 226.12 560.84 226.09 C 552.10 224.13 543.06 224.38 534.22 223.10 C 533.03 222.91 531.84 222.74 530.66 222.60 C 536.11 219.19 541.98 216.55 547.70 213.64 C 551.84 211.52 556.43 209.98 559.70 206.51 Z" />
<path fill="#0e7cbe" d=" M 240.55 209.37 C 242.87 208.49 245.23 207.46 247.74 207.36 C 253.25 209.28 258.48 211.91 263.80 214.32 C 264.20 215.24 264.61 216.16 265.01 217.08 C 256.79 214.75 248.68 212.01 240.55 209.37 Z" />
<path fill="#f79241" d=" M 459.27 212.27 C 464.50 210.96 469.68 209.46 474.82 207.81 C 480.26 208.64 485.60 210.02 490.88 211.55 C 485.97 212.99 484.59 218.49 481.45 221.95 C 480.49 221.32 479.53 220.68 478.58 220.06 C 480.21 225.55 482.58 230.78 484.66 236.11 C 487.03 241.98 488.91 248.06 491.81 253.70 C 486.86 256.75 481.33 258.69 476.10 261.19 L 475.42 261.10 C 473.22 258.04 468.97 259.27 465.77 258.50 C 463.45 260.34 461.39 262.54 458.85 264.08 C 452.98 265.42 446.97 266.04 441.05 267.10 C 433.08 255.93 425.29 244.64 417.20 233.56 C 418.76 230.25 420.38 226.97 421.92 223.65 C 422.40 223.47 423.37 223.11 423.85 222.93 C 435.54 219.01 447.62 216.37 459.27 212.27 Z" />
<path fill="#f89948" d=" M 481.45 221.95 C 484.59 218.49 485.97 212.99 490.88 211.55 C 495.87 213.27 500.98 214.58 506.13 215.74 C 510.26 216.56 513.89 218.83 517.94 219.86 C 521.48 220.65 524.95 221.70 528.46 222.59 C 527.73 223.29 526.99 223.99 526.26 224.68 C 515.12 233.90 504.47 243.70 493.18 252.73 C 492.84 252.97 492.16 253.46 491.81 253.70 C 488.91 248.06 487.03 241.98 484.66 236.11 C 482.58 230.78 480.21 225.55 478.58 220.06 C 479.53 220.68 480.49 221.32 481.45 221.95 Z" />
<path fill="#0d77bb" d=" M 267.20 221.93 C 269.88 218.65 273.70 217.17 277.89 217.23 C 279.11 218.01 280.34 218.81 281.58 219.59 C 281.83 221.20 282.09 222.81 282.28 224.44 C 277.24 223.71 272.18 223.04 267.20 221.93 Z" />
<path fill="#e64748" d=" M 785.37 219.98 C 787.06 220.79 789.67 221.37 789.59 223.74 C 788.44 226.69 786.56 229.25 784.95 231.94 C 787.57 232.96 790.19 233.98 792.82 235.01 C 789.66 237.43 786.28 239.58 783.45 242.39 C 782.23 243.60 780.92 244.77 779.27 245.30 C 780.74 243.03 782.47 240.94 784.17 238.83 C 782.59 236.46 780.94 234.15 779.26 231.86 C 781.18 227.84 783.18 223.86 785.37 219.98 Z" />
<path fill="#f6ac5a" d=" M 528.46 222.59 C 529.19 222.60 529.92 222.60 530.66 222.60 C 531.84 222.74 533.03 222.91 534.22 223.10 C 533.48 223.57 532.74 224.04 532.01 224.52 C 532.36 224.69 533.07 225.03 533.43 225.20 C 533.57 226.06 533.85 226.87 534.26 227.64 C 549.05 244.25 565.49 259.32 581.02 275.23 C 576.59 281.19 572.04 287.06 567.59 293.00 C 567.91 296.15 568.27 299.31 568.73 302.45 C 563.30 306.29 557.09 308.84 550.90 311.16 C 536.26 302.09 521.09 293.89 506.36 284.98 L 506.51 284.16 C 512.67 266.01 519.34 248.03 525.83 230.00 C 526.45 228.29 526.29 226.45 526.26 224.68 C 526.99 223.99 527.73 223.29 528.46 222.59 Z" />
<path fill="#f88e3b" d=" M 534.22 223.10 C 543.06 224.38 552.10 224.13 560.84 226.09 C 562.36 226.42 563.91 226.42 565.47 226.46 C 568.92 230.36 572.24 234.39 575.53 238.43 C 577.62 240.82 577.52 244.21 578.36 247.13 C 563.05 240.51 548.56 232.18 533.43 225.20 C 533.07 225.03 532.36 224.69 532.01 224.52 C 532.74 224.04 533.48 223.57 534.22 223.10 Z" />
<path fill="#f8a14e" d=" M 493.18 252.73 C 504.47 243.70 515.12 233.90 526.26 224.68 C 526.29 226.45 526.45 228.29 525.83 230.00 C 519.34 248.03 512.67 266.01 506.51 284.16 C 502.72 275.72 498.96 267.26 495.00 258.90 C 494.07 256.95 493.58 254.84 493.18 252.73 Z" />
<path fill="#f5a94a" d=" M 534.26 227.64 C 533.85 226.87 533.57 226.06 533.43 225.20 C 548.56 232.18 563.05 240.51 578.36 247.13 C 578.77 247.37 579.61 247.86 580.03 248.11 C 584.78 251.28 590.22 253.20 595.07 256.22 C 593.76 259.93 591.87 263.43 589.71 266.71 C 587.08 269.81 583.93 272.40 581.02 275.23 C 565.49 259.32 549.05 244.25 534.26 227.64 Z" />
<path fill="#f15241" d=" M 794.20 239.89 C 796.46 240.30 795.92 242.90 796.44 244.55 C 795.74 244.99 795.05 245.42 794.37 245.86 C 794.27 243.87 794.20 241.88 794.20 239.89 Z" />
<path fill="#acd743" d=" M 263.51 249.96 C 267.11 246.86 270.81 243.88 274.46 240.84 C 273.87 244.31 272.97 248.00 274.45 251.39 C 274.87 249.82 275.28 248.24 275.66 246.66 C 277.29 245.30 278.95 243.96 280.63 242.64 C 281.20 243.63 281.77 244.63 282.35 245.62 C 282.95 245.78 284.16 246.10 284.77 246.26 L 284.83 246.49 C 287.26 254.38 289.09 262.63 293.10 269.90 C 295.16 273.20 296.08 277.03 297.00 280.76 C 294.75 279.94 292.85 278.45 291.26 276.69 C 282.46 267.29 272.34 259.31 263.51 249.96 Z" />
<path fill="#f79640" d=" M 580.03 248.11 C 586.34 246.15 592.69 244.32 599.09 242.66 C 598.05 247.32 597.09 252.01 595.75 256.60 L 595.07 256.22 C 590.22 253.20 584.78 251.28 580.03 248.11 Z" />
<path fill="#f04f41" d=" M 786.45 249.36 C 786.55 247.50 786.66 245.65 786.80 243.80 C 789.32 244.68 791.64 246.09 792.49 248.78 C 790.47 248.99 788.47 249.18 786.45 249.36 Z" />
<path fill="#74a136" d=" M 299.88 248.45 C 300.91 247.16 301.96 245.88 303.04 244.62 C 302.85 246.86 302.56 249.10 301.95 251.27 C 304.94 253.86 307.86 256.58 311.02 258.97 C 313.93 260.54 317.25 261.16 320.35 262.27 L 320.15 262.86 C 318.90 266.19 318.29 269.69 317.56 273.16 C 315.80 271.21 314.00 269.29 312.07 267.51 C 307.46 263.69 303.27 259.41 298.92 255.30 C 296.43 252.92 293.87 250.61 291.22 248.40 C 291.66 247.72 292.54 246.37 292.98 245.69 C 294.29 245.73 295.60 245.76 296.91 245.80 C 297.89 246.68 298.88 247.56 299.88 248.45 Z" />
<path fill="#afd54c" d=" M 284.83 246.49 C 286.21 246.67 287.60 246.85 288.98 247.05 C 289.28 247.49 289.88 248.38 290.18 248.83 C 290.44 248.72 290.96 248.51 291.22 248.40 C 293.87 250.61 296.43 252.92 298.92 255.30 C 295.42 259.39 293.65 264.60 293.10 269.90 C 289.09 262.63 287.26 254.38 284.83 246.49 Z" />
<path fill="#bce44f" d=" M 251.90 249.54 C 254.96 248.72 257.84 251.44 260.80 252.15 C 261.69 251.42 262.60 250.69 263.51 249.96 C 272.34 259.31 282.46 267.29 291.26 276.69 C 292.85 278.45 294.75 279.94 297.00 280.76 C 298.06 284.95 296.00 289.05 295.32 293.13 C 291.54 296.78 286.62 298.73 281.97 300.99 C 277.33 303.16 272.98 306.37 267.72 306.80 C 264.75 296.55 261.84 286.28 259.03 275.99 C 258.46 273.99 257.63 272.08 256.76 270.20 L 256.26 269.15 C 256.59 269.11 257.25 269.04 257.58 269.00 L 256.24 268.73 C 256.03 263.85 255.18 259.04 254.76 254.18 C 254.11 254.03 252.80 253.75 252.15 253.61 C 252.05 252.25 251.96 250.89 251.90 249.54 Z" />
<path fill="#e84645" d=" M 723.34 254.09 C 723.71 252.11 724.11 250.14 724.58 248.19 C 732.30 255.76 738.06 265.42 740.16 276.07 C 739.37 276.52 738.51 276.75 737.58 276.78 C 732.90 269.18 728.12 261.63 723.34 254.09 Z" />
<path fill="#98c245" d=" M 248.83 251.80 C 249.75 250.93 250.85 250.26 251.90 249.54 C 251.96 250.89 252.05 252.25 252.15 253.61 C 251.38 254.84 250.62 256.06 249.85 257.29 C 248.89 256.61 247.94 255.93 246.98 255.25 L 247.68 253.91 C 247.96 253.38 248.54 252.33 248.83 251.80 Z" />
<path fill="#e03e66" d=" M 675.68 249.71 C 677.24 251.57 679.04 253.50 679.37 256.02 C 679.84 258.64 678.50 261.10 677.71 263.52 C 676.91 263.91 676.12 264.31 675.35 264.70 C 675.45 259.71 675.43 254.70 675.68 249.71 Z" />
<path fill="#f05041" d=" M 792.27 253.31 C 793.19 252.13 794.11 250.94 795.05 249.77 C 796.38 251.27 797.67 252.82 798.96 254.38 C 798.56 257.08 797.00 259.25 794.78 260.79 C 791.29 259.39 787.82 257.97 784.41 256.41 C 785.21 255.28 786.05 254.18 786.88 253.06 C 788.66 253.14 790.46 253.22 792.27 253.31 Z" />
<path fill="#f4a656" d=" M 491.81 253.70 C 492.16 253.46 492.84 252.97 493.18 252.73 C 493.58 254.84 494.07 256.95 495.00 258.90 C 498.96 267.26 502.72 275.72 506.51 284.16 L 506.36 284.98 C 505.56 285.45 504.76 285.93 503.97 286.41 C 500.59 288.42 497.17 290.37 493.78 292.37 C 491.90 283.51 490.07 274.65 488.17 265.80 C 484.85 265.93 481.53 266.09 478.22 266.27 C 477.40 264.82 476.29 263.49 475.87 261.86 L 476.10 261.19 C 481.33 258.69 486.86 256.75 491.81 253.70 Z" />
<path fill="#94bf44" d=" M 293.10 269.90 C 293.65 264.60 295.42 259.39 298.92 255.30 C 303.27 259.41 307.46 263.69 312.07 267.51 C 311.04 267.53 310.02 267.60 309.00 267.72 C 306.26 270.85 305.29 275.06 303.95 278.91 C 308.55 277.16 313.29 275.65 317.56 273.16 C 318.29 269.69 318.90 266.19 320.15 262.86 L 320.48 261.92 C 325.11 263.98 326.95 269.08 330.04 272.76 C 326.36 273.12 322.70 273.65 319.09 274.45 C 320.75 276.76 322.51 279.05 324.79 280.79 C 325.67 281.39 326.57 281.96 327.49 282.51 C 327.03 282.88 326.58 283.26 326.13 283.65 C 324.99 283.07 323.83 282.53 322.68 281.99 C 319.88 284.93 317.57 288.29 315.70 291.89 C 310.00 289.15 304.29 286.43 298.50 283.88 C 303.21 295.52 309.02 306.68 314.15 318.14 C 316.71 324.05 319.68 329.77 322.26 335.68 C 323.20 337.86 324.50 339.87 325.93 341.77 L 325.84 341.88 C 325.56 342.19 325.01 342.81 324.73 343.12 C 320.64 344.66 316.40 345.75 312.18 346.84 C 305.98 348.36 299.72 349.75 293.71 351.90 C 290.06 352.84 290.87 357.36 290.29 360.25 C 287.41 358.66 284.61 356.95 281.82 355.22 C 286.35 334.53 290.76 313.81 295.32 293.13 C 296.00 289.05 298.06 284.95 297.00 280.76 C 296.08 277.03 295.16 273.20 293.10 269.90 Z" />
<path fill="#f15241" d=" M 767.69 264.59 C 769.96 262.45 770.65 258.60 773.93 257.69 C 774.88 259.94 774.56 263.82 777.92 263.73 C 777.01 264.59 776.16 265.50 775.37 266.46 C 773.86 270.02 777.95 274.22 775.54 277.35 C 767.91 278.65 760.47 280.80 752.88 282.25 C 752.70 279.28 752.30 276.34 751.96 273.39 C 753.41 273.82 754.87 274.26 756.34 274.70 C 760.13 271.34 764.06 268.13 767.69 264.59 Z" />
<path fill="#e63a5b" d=" M 715.36 262.09 C 720.60 263.74 724.92 267.54 728.75 271.38 C 732.65 275.77 737.23 279.46 741.64 283.31 C 740.43 284.28 739.21 285.26 737.99 286.21 C 734.72 285.35 731.47 284.41 728.13 283.91 C 727.52 283.80 726.30 283.59 725.69 283.48 C 722.16 276.39 718.56 269.32 715.36 262.09 Z" />
<path fill="#85b237" d=" M 309.00 267.72 C 310.02 267.60 311.04 267.53 312.07 267.51 C 314.00 269.29 315.80 271.21 317.56 273.16 C 313.29 275.65 308.55 277.16 303.95 278.91 C 305.29 275.06 306.26 270.85 309.00 267.72 Z" />
<path fill="#9dc744" d=" M 256.76 270.20 C 257.63 272.08 258.46 273.99 259.03 275.99 C 261.84 286.28 264.75 296.55 267.72 306.80 C 270.61 316.77 273.34 326.78 276.30 336.73 C 271.88 333.49 267.93 329.70 263.67 326.28 C 262.25 324.97 260.33 323.91 259.90 321.87 C 256.07 308.82 252.60 295.67 248.64 282.66 C 251.03 278.31 256.20 275.34 256.76 270.20 Z" />
<path fill="#75a339" d=" M 319.09 274.45 C 322.70 273.65 326.36 273.12 330.04 272.76 C 330.86 273.86 331.67 274.96 332.50 276.06 C 329.93 277.64 327.36 279.21 324.79 280.79 C 322.51 279.05 320.75 276.76 319.09 274.45 Z" />
<path fill="#aa245e" d=" M 801.22 282.27 C 802.24 279.00 803.14 275.67 804.72 272.61 C 805.96 275.40 804.57 278.17 803.74 280.83 C 802.89 281.31 802.05 281.79 801.22 282.27 Z" />
<path fill="#f86d47" d=" M 781.49 276.08 C 785.98 275.76 790.47 275.39 794.99 275.30 C 793.36 280.27 787.43 278.75 783.44 279.78 C 782.78 278.54 782.13 277.31 781.49 276.08 Z" />
<path fill="#f86e47" d=" M 752.88 282.25 C 760.47 280.80 767.91 278.65 775.54 277.35 C 773.30 281.09 770.66 284.91 771.83 289.52 C 767.89 289.89 763.94 290.28 760.01 290.66 C 757.59 287.91 754.22 285.79 752.88 282.25 Z" />
<path fill="#6e9e2f" d=" M 327.49 282.51 C 328.87 281.35 330.29 280.25 331.73 279.17 C 332.42 279.56 333.80 280.34 334.50 280.72 C 333.20 282.71 331.93 284.72 330.73 286.77 C 334.45 288.81 335.90 283.92 338.04 281.86 C 344.17 284.04 350.27 286.32 356.41 288.48 C 359.35 289.28 361.14 291.93 363.74 293.35 C 367.06 295.60 371.43 297.52 371.86 302.05 C 363.95 303.57 355.96 304.94 347.91 305.41 C 346.99 305.25 346.08 305.11 345.17 304.98 C 345.08 303.50 344.93 302.03 344.79 300.56 C 344.49 301.28 343.89 302.74 343.60 303.46 C 343.32 303.47 342.77 303.47 342.49 303.48 C 339.28 298.74 335.47 294.46 331.99 289.94 C 330.23 287.67 328.39 285.44 326.13 283.65 C 326.58 283.26 327.03 282.88 327.49 282.51 Z" />
<path fill="#f76a45" d=" M 809.85 281.09 C 812.11 279.37 814.71 280.94 817.08 281.53 C 825.90 284.30 834.89 286.57 843.64 289.54 C 847.60 293.19 852.00 296.77 854.14 301.85 C 856.89 305.26 861.04 308.41 860.20 313.40 C 858.12 312.69 855.89 312.27 854.03 311.09 C 852.33 309.28 851.08 307.12 849.70 305.09 C 847.89 304.74 846.08 304.42 844.28 304.10 C 842.60 306.48 841.30 309.21 839.05 311.12 C 837.23 309.49 835.87 307.44 834.14 305.74 C 832.20 305.31 830.17 305.50 828.22 305.36 C 829.07 304.19 829.99 303.07 830.94 301.97 C 825.06 298.78 819.25 295.49 813.41 292.25 C 813.83 290.53 814.27 288.83 814.72 287.13 C 813.06 285.14 811.43 283.13 809.85 281.09 Z" />
<path fill="#88b53a" d=" M 315.70 291.89 C 317.57 288.29 319.88 284.93 322.68 281.99 C 323.83 282.53 324.99 283.07 326.13 283.65 C 328.39 285.44 330.23 287.67 331.99 289.94 C 335.47 294.46 339.28 298.74 342.49 303.48 C 338.58 303.96 335.26 301.59 331.93 299.96 C 326.52 297.25 321.06 294.67 315.70 291.89 Z" />
<path fill="#f86d47" d=" M 780.18 281.61 C 783.54 282.13 786.91 282.66 790.26 283.33 C 789.48 285.62 786.98 285.32 785.04 285.61 C 788.49 288.27 790.37 292.28 790.38 296.64 C 788.73 295.94 787.11 295.23 785.48 294.52 C 784.91 292.65 784.35 290.78 783.78 288.92 C 781.79 289.88 779.84 290.92 777.92 292.00 C 778.68 288.54 779.42 285.07 780.18 281.61 Z" />
<path fill="#fb844a" d=" M 741.64 283.31 C 743.45 284.72 744.26 286.82 744.82 288.98 C 743.62 291.93 743.18 295.09 742.88 298.23 C 738.49 296.12 733.81 294.59 729.64 292.05 C 732.42 290.10 735.28 288.27 737.99 286.21 C 739.21 285.26 740.43 284.28 741.64 283.31 Z" />
<path fill="#79a63d" d=" M 298.50 283.88 C 304.29 286.43 310.00 289.15 315.70 291.89 C 321.06 294.67 326.52 297.25 331.93 299.96 C 335.26 301.59 338.58 303.96 342.49 303.48 C 342.77 303.47 343.32 303.47 343.60 303.46 C 343.89 302.74 344.49 301.28 344.79 300.56 C 344.93 302.03 345.08 303.50 345.17 304.98 C 345.01 305.27 344.70 305.84 344.54 306.13 C 342.80 309.22 341.23 312.40 339.55 315.53 C 331.12 316.78 322.60 317.09 314.15 318.14 C 309.02 306.68 303.21 295.52 298.50 283.88 Z" />
<path fill="#f65745" d=" M 725.86 284.10 C 726.43 284.05 727.56 283.96 728.13 283.91 C 731.47 284.41 734.72 285.35 737.99 286.21 C 735.28 288.27 732.42 290.10 729.64 292.05 C 728.53 289.33 727.21 286.70 725.86 284.10 Z" />
<path fill="#f8c273" d=" M 506.36 284.98 C 521.09 293.89 536.26 302.09 550.90 311.16 C 543.87 316.28 535.91 319.89 528.54 324.48 C 520.36 329.59 511.63 333.77 503.64 339.18 C 502.80 334.99 501.54 330.86 501.19 326.59 C 502.82 313.77 503.99 300.90 505.82 288.10 C 505.36 287.68 504.43 286.83 503.97 286.41 C 504.76 285.93 505.56 285.45 506.36 284.98 Z" />
<path fill="#85ad52" d=" M 346.33 287.41 C 347.78 287.60 347.73 291.27 346.33 291.54 C 345.52 290.37 345.53 288.57 346.33 287.41 Z" />
<path fill="#f9b562" d=" M 493.78 292.37 C 497.17 290.37 500.59 288.42 503.97 286.41 C 504.43 286.83 505.36 287.68 505.82 288.10 C 503.99 300.90 502.82 313.77 501.19 326.59 C 498.29 315.29 496.29 303.77 493.78 292.37 Z" />
<path fill="#c1e852" d=" M 281.97 300.99 C 286.62 298.73 291.54 296.78 295.32 293.13 C 290.76 313.81 286.35 334.53 281.82 355.22 L 281.33 354.12 C 281.19 353.84 280.91 353.29 280.77 353.01 C 279.64 348.62 278.44 344.26 276.89 340.00 C 276.65 338.91 276.55 337.80 276.30 336.73 C 273.34 326.78 270.61 316.77 267.72 306.80 C 272.98 306.37 277.33 303.16 281.97 300.99 Z" />
<path fill="#86ad54" d=" M 345.35 294.43 C 346.77 294.67 346.77 298.33 345.35 298.58 C 344.54 297.40 344.55 295.60 345.35 294.43 Z" />
<path fill="#fb834a" d=" M 743.38 297.54 C 746.52 298.69 749.61 300.00 752.74 301.21 L 752.98 301.63 C 753.59 302.71 754.23 303.79 754.86 304.87 C 751.33 304.42 747.80 303.88 744.28 303.42 C 743.83 301.49 743.39 299.53 743.38 297.54 Z" />
<path fill="#f76843" d=" M 752.98 301.63 C 758.13 299.90 764.67 301.29 767.24 306.51 C 763.08 306.22 758.96 305.56 754.86 304.87 C 754.23 303.79 753.59 302.71 752.98 301.63 Z" />
<path fill="#669927" d=" M 347.91 305.41 C 355.96 304.94 363.95 303.57 371.86 302.05 C 371.36 304.61 370.76 307.18 369.14 309.29 C 362.10 307.77 354.93 306.99 347.91 305.41 Z" />
<path fill="#fac77c" d=" M 568.73 302.45 C 569.30 309.29 570.30 316.08 570.92 322.92 C 571.30 324.35 570.24 325.48 569.44 326.51 C 565.25 331.66 560.71 336.55 556.85 341.95 C 556.53 342.43 555.90 343.40 555.59 343.88 C 546.02 344.60 536.55 342.69 527.00 342.80 C 524.33 342.71 521.69 342.32 519.05 342.09 C 514.02 341.63 508.90 342.48 503.95 341.23 C 503.87 340.72 503.72 339.69 503.64 339.18 C 511.63 333.77 520.36 329.59 528.54 324.48 C 535.91 319.89 543.87 316.28 550.90 311.16 C 557.09 308.84 563.30 306.29 568.73 302.45 Z" />
<path fill="#78a82e" d=" M 344.54 306.13 C 344.70 305.84 345.01 305.27 345.17 304.98 C 346.08 305.11 346.99 305.25 347.91 305.41 C 354.93 306.99 362.10 307.77 369.14 309.29 C 366.50 313.77 364.08 318.39 361.22 322.75 C 355.75 317.12 350.26 311.50 344.54 306.13 Z" />
<path fill="#f86c46" d=" M 794.30 304.53 C 795.76 305.30 797.21 306.10 798.69 306.89 C 796.04 308.79 793.72 312.00 790.07 311.48 C 791.43 309.13 792.88 306.83 794.30 304.53 Z" />
<path fill="#71a036" d=" M 344.54 306.13 C 350.26 311.50 355.75 317.12 361.22 322.75 L 361.27 322.81 C 359.70 324.92 360.66 327.60 360.01 329.97 C 359.06 333.93 357.81 337.82 356.95 341.80 L 356.93 341.80 C 346.57 341.57 336.19 341.49 325.84 341.88 L 325.93 341.77 C 331.21 333.43 334.64 324.08 339.55 315.53 C 341.23 312.40 342.80 309.22 344.54 306.13 Z" />
<path fill="#c99817" d=" M 839.25 312.56 C 841.33 316.73 843.49 320.87 846.39 324.55 C 850.08 328.96 849.94 335.08 852.57 340.04 C 848.59 340.04 843.97 341.44 842.64 345.64 C 832.53 345.92 822.54 343.81 812.59 342.32 L 812.28 342.09 C 816.79 337.39 822.08 333.53 826.64 328.88 C 829.74 330.60 832.44 333.32 836.19 333.51 C 837.31 326.54 837.98 319.51 839.25 312.56 Z" />
<path fill="#7faa40" d=" M 314.15 318.14 C 322.60 317.09 331.12 316.78 339.55 315.53 C 334.64 324.08 331.21 333.43 325.93 341.77 C 324.50 339.87 323.20 337.86 322.26 335.68 C 319.68 329.77 316.71 324.05 314.15 318.14 Z" />
<path fill="#d18116" d=" M 808.94 316.61 C 811.12 316.35 813.64 315.01 815.57 316.71 C 818.33 318.64 821.85 317.85 825.01 318.13 C 823.98 321.77 822.87 326.36 826.64 328.88 C 822.08 333.53 816.79 337.39 812.28 342.09 C 806.43 336.69 800.66 331.14 795.36 325.18 C 795.81 324.46 796.69 323.03 797.14 322.31 C 799.79 322.99 802.44 323.69 805.11 324.37 C 806.34 321.76 807.63 319.17 808.94 316.61 Z" />
<path fill="#f2c365" d=" M 581.17 330.14 C 585.51 326.13 589.83 322.08 594.17 318.06 C 597.13 320.31 597.34 324.58 597.04 327.99 C 595.60 333.92 593.60 339.69 591.97 345.57 C 587.74 343.68 582.84 342.21 580.46 337.87 C 580.73 335.29 580.94 332.71 581.17 330.14 Z" />
<path fill="#e19820" d=" M 792.56 329.62 C 793.49 328.14 794.42 326.66 795.36 325.18 C 800.66 331.14 806.43 336.69 812.28 342.09 L 812.59 342.32 C 805.13 345.56 797.81 349.12 790.43 352.52 L 790.02 352.64 C 789.96 344.88 788.57 337.19 788.85 329.42 C 790.08 329.49 791.31 329.55 792.56 329.62 Z" />
<path fill="#e67c1e" d=" M 784.20 329.18 C 785.74 329.26 787.29 329.34 788.85 329.42 C 788.57 337.19 789.96 344.88 790.02 352.64 C 785.83 352.52 781.64 352.77 777.47 353.19 C 772.13 353.61 766.76 354.23 761.42 353.52 C 762.48 351.71 762.87 348.99 765.14 348.25 C 771.52 345.59 777.92 342.95 784.31 340.29 C 784.27 336.58 784.23 332.88 784.20 329.18 Z" />
<path fill="#ccf0e3" d=" M 938.29 331.27 C 940.19 331.84 937.73 334.80 936.39 333.81 C 935.79 332.66 937.22 331.43 938.29 331.27 Z" />
<path fill="#fbd797" d=" M 580.46 337.87 C 582.84 342.21 587.74 343.68 591.97 345.57 C 590.62 350.13 589.67 355.04 586.66 358.86 C 585.60 359.41 584.46 359.76 583.35 360.16 C 582.06 358.48 580.78 356.80 579.50 355.12 C 579.87 349.37 580.30 343.62 580.46 337.87 Z" />
<path fill="#c9b424" d=" M 842.64 345.64 C 843.97 341.44 848.59 340.04 852.57 340.04 C 853.38 340.34 854.19 340.68 854.99 341.06 C 854.18 345.83 853.69 350.65 853.09 355.45 C 849.68 352.10 846.30 348.72 842.64 345.64 Z" />
<path fill="#9dc744" d=" M 276.89 340.00 C 278.44 344.26 279.64 348.62 280.77 353.01 C 279.07 351.52 277.20 350.26 275.31 349.04 C 275.70 346.01 276.09 342.96 276.89 340.00 Z" />
<path fill="#fbdda5" d=" M 503.95 341.23 C 508.90 342.48 514.02 341.63 519.05 342.09 C 521.69 342.32 524.33 342.71 527.00 342.80 C 536.55 342.69 546.02 344.60 555.59 343.88 C 555.90 343.40 556.53 342.43 556.85 341.95 C 556.96 345.90 557.60 349.83 557.65 353.79 C 555.54 355.73 552.52 356.46 550.06 357.95 C 550.55 360.01 551.02 362.08 551.51 364.16 C 547.53 369.58 543.87 375.33 539.39 380.33 C 530.89 382.90 522.32 385.30 513.73 387.51 C 510.28 372.12 507.47 356.60 503.95 341.23 Z" />
<path fill="#cec535" d=" M 854.99 341.06 C 857.22 342.23 859.51 343.31 861.80 344.38 C 862.34 345.71 862.86 347.03 863.42 348.37 C 860.24 350.98 856.96 353.47 853.47 355.63 L 853.09 355.45 C 853.69 350.65 854.18 345.83 854.99 341.06 Z" />
<path fill="#82ac44" d=" M 324.73 343.12 C 325.01 342.81 325.56 342.19 325.84 341.88 C 336.19 341.49 346.57 341.57 356.93 341.80 L 356.45 342.95 C 346.35 343.84 336.21 342.72 326.09 343.15 C 331.86 347.23 337.76 351.16 343.29 355.57 C 340.63 356.85 337.95 358.13 335.27 359.37 C 335.26 362.21 335.25 365.05 335.22 367.89 C 333.32 369.73 331.57 371.72 329.96 373.83 C 328.11 367.57 327.52 361.05 326.28 354.66 C 325.55 350.84 324.86 347.01 324.73 343.12 Z" />
<path fill="#79a638" d=" M 312.18 346.84 C 316.40 345.75 320.64 344.66 324.73 343.12 C 324.86 347.01 325.55 350.84 326.28 354.66 C 327.52 361.05 328.11 367.57 329.96 373.83 L 330.04 374.13 C 328.30 376.59 326.57 379.06 324.84 381.52 C 319.72 378.12 314.44 374.96 309.47 371.35 C 307.02 369.88 308.01 366.86 308.46 364.61 C 309.91 358.73 311.39 352.85 312.18 346.84 Z" />
<path fill="#76a435" d=" M 326.09 343.15 C 336.21 342.72 346.35 343.84 356.45 342.95 C 356.12 345.68 355.06 348.23 353.85 350.69 C 350.32 352.29 346.83 353.98 343.29 355.57 C 337.76 351.16 331.86 347.23 326.09 343.15 Z" />
<path fill="#ebc12d" d=" M 790.43 352.52 C 797.81 349.12 805.13 345.56 812.59 342.32 C 810.73 346.13 812.16 350.30 813.08 354.15 C 812.01 354.00 810.95 353.84 809.90 353.68 C 809.91 355.76 809.95 357.84 809.88 359.92 C 809.21 360.93 808.56 361.95 807.73 362.83 C 806.04 362.70 804.39 362.27 802.71 362.21 C 800.91 362.55 799.27 363.90 797.43 363.67 C 794.40 360.43 792.75 356.23 790.43 352.52 Z" />
<path fill="#ddbe25" d=" M 812.59 342.32 C 822.54 343.81 832.53 345.92 842.64 345.64 C 843.66 358.10 842.12 370.62 843.09 383.08 C 841.15 382.97 839.21 383.00 837.32 382.61 C 835.59 381.82 834.48 380.17 833.25 378.80 C 826.56 370.56 820.39 361.87 813.08 354.15 C 812.16 350.30 810.73 346.13 812.59 342.32 Z" />
<path fill="#d4bf37" d=" M 900.14 347.91 C 900.23 346.77 900.33 345.64 900.45 344.52 C 901.25 344.77 902.84 345.26 903.64 345.51 C 904.32 346.97 904.93 348.48 904.99 350.12 C 903.34 349.42 901.73 348.67 900.14 347.91 Z" />
<path fill="#dac930" d=" M 842.64 345.64 C 846.30 348.72 849.68 352.10 853.09 355.45 C 850.70 365.29 847.41 374.87 844.63 384.60 C 844.10 384.08 843.59 383.58 843.09 383.08 C 842.12 370.62 843.66 358.10 842.64 345.64 Z" />
<path fill="#8cb741" d=" M 293.71 351.90 C 299.72 349.75 305.98 348.36 312.18 346.84 C 311.39 352.85 309.91 358.73 308.46 364.61 C 308.01 366.86 307.02 369.88 309.47 371.35 C 314.44 374.96 319.72 378.12 324.84 381.52 C 323.51 383.45 322.18 385.37 320.86 387.31 C 318.20 387.86 315.54 388.40 312.88 388.93 C 311.83 386.42 311.43 383.44 309.87 381.24 C 309.23 383.08 308.77 384.98 308.28 386.87 C 309.96 388.29 311.64 389.72 313.35 391.13 C 312.03 394.49 310.56 397.79 309.09 401.09 C 305.67 401.31 302.25 401.54 298.83 401.77 C 298.56 403.84 298.29 405.92 298.03 408.00 C 295.72 407.58 293.41 407.16 291.10 406.79 C 291.97 408.74 292.81 410.86 294.78 411.98 C 293.31 413.81 291.84 415.65 290.37 417.49 C 289.74 413.36 289.15 409.22 288.44 405.11 C 286.86 390.71 284.75 376.36 283.15 361.96 C 282.88 359.68 282.52 357.41 281.82 355.22 C 284.61 356.95 287.41 358.66 290.29 360.25 C 290.87 357.36 290.06 352.84 293.71 351.90 Z" />
<path fill="#ded668" d=" M 863.42 348.37 L 863.52 348.29 C 863.94 349.64 864.39 350.99 864.84 352.35 C 863.63 354.67 862.45 357.00 861.45 359.42 C 858.70 358.33 856.06 357.03 853.47 355.63 C 856.96 353.47 860.24 350.98 863.42 348.37 Z" />
<path fill="#88b242" d=" M 275.31 349.04 C 277.20 350.26 279.07 351.52 280.77 353.01 C 280.91 353.29 281.19 353.84 281.33 354.12 C 278.89 355.49 276.46 356.88 274.04 358.27 C 274.41 355.19 274.85 352.11 275.31 349.04 Z" />
<path fill="#f0ae2f" d=" M 777.47 353.19 C 781.64 352.77 785.83 352.52 790.02 352.64 C 785.98 364.83 781.44 376.87 777.88 389.22 C 775.16 389.82 772.41 390.32 769.69 390.86 C 768.62 389.02 767.61 387.15 766.67 385.26 C 767.97 383.22 769.22 381.16 770.46 379.08 C 768.92 375.82 767.39 372.56 765.91 369.28 C 772.97 364.29 780.28 359.63 787.16 354.38 C 783.91 354.17 780.68 353.73 777.47 353.19 Z" />
<path fill="#ef9b26" d=" M 761.12 353.50 L 761.42 353.52 C 766.76 354.23 772.13 353.61 777.47 353.19 C 780.68 353.73 783.91 354.17 787.16 354.38 C 780.28 359.63 772.97 364.29 765.91 369.28 C 763.85 364.92 761.70 360.62 759.84 356.18 C 760.26 355.28 760.68 354.39 761.12 353.50 Z" />
<path fill="#f0c838" d=" M 790.02 352.64 L 790.43 352.52 C 792.75 356.23 794.40 360.43 797.43 363.67 C 799.27 363.90 800.91 362.55 802.71 362.21 C 804.39 362.27 806.04 362.70 807.73 362.83 C 808.56 361.95 809.21 360.93 809.88 359.92 C 809.76 365.64 809.02 371.33 807.78 376.91 L 807.21 377.27 C 802.93 378.71 798.46 379.34 794.07 380.30 C 793.18 383.19 792.34 386.09 791.58 389.01 C 787.01 389.23 782.44 389.06 777.88 389.22 C 781.44 376.87 785.98 364.83 790.02 352.64 Z" />
<path fill="#e6cd37" d=" M 809.90 353.68 C 810.95 353.84 812.01 354.00 813.08 354.15 C 820.39 361.87 826.56 370.56 833.25 378.80 C 834.48 380.17 835.59 381.82 837.32 382.61 C 839.21 383.00 841.15 382.97 843.09 383.08 C 842.93 385.28 842.74 387.49 842.54 389.69 C 838.22 388.58 833.93 387.26 829.48 386.85 C 828.48 385.68 827.50 384.51 826.54 383.34 C 826.11 383.78 825.23 384.68 824.80 385.12 C 823.30 385.00 821.82 384.81 820.35 384.64 C 819.75 383.82 819.17 383.01 818.60 382.20 C 815.08 380.60 811.33 379.46 807.93 377.65 L 807.78 376.91 C 809.02 371.33 809.76 365.64 809.88 359.92 C 809.95 357.84 809.91 355.76 809.90 353.68 Z" />
<path fill="#e1d34b" d=" M 861.45 359.42 C 862.45 357.00 863.63 354.67 864.84 352.35 C 866.98 359.93 871.62 366.68 872.54 374.59 C 865.54 377.27 858.82 380.62 852.06 383.84 C 855.10 375.66 858.25 367.53 861.45 359.42 Z" />
<path fill="#a7cd4e" d=" M 274.04 358.27 C 276.46 356.88 278.89 355.49 281.33 354.12 L 281.82 355.22 C 282.52 357.41 282.88 359.68 283.15 361.96 C 284.75 376.36 286.86 390.71 288.44 405.11 C 287.33 403.43 286.27 401.53 284.39 400.60 C 279.39 397.97 274.13 395.85 268.87 393.81 C 270.56 381.96 272.24 370.10 274.04 358.27 Z" />
<path fill="#e2d959" d=" M 853.09 355.45 L 853.47 355.63 C 856.06 357.03 858.70 358.33 861.45 359.42 C 858.25 367.53 855.10 375.66 852.06 383.84 C 858.82 380.62 865.54 377.27 872.54 374.59 C 872.19 378.53 868.68 381.16 866.16 383.86 C 862.27 384.80 858.38 385.72 854.55 386.84 C 850.77 387.79 847.02 388.85 843.25 389.79 C 843.07 389.76 842.72 389.72 842.54 389.69 C 842.74 387.49 842.93 385.28 843.09 383.08 C 843.59 383.58 844.10 384.08 844.63 384.60 C 847.41 374.87 850.70 365.29 853.09 355.45 Z" />
<path fill="#f3e26f" d=" M 818.60 382.20 C 819.17 383.01 819.75 383.82 820.35 384.64 C 821.82 384.81 823.30 385.00 824.80 385.12 C 824.10 385.97 823.39 386.81 822.69 387.65 C 821.30 387.75 819.92 387.86 818.56 387.98 C 818.57 386.05 818.58 384.13 818.60 382.20 Z" />
<path fill="#e9e17d" d=" M 854.55 386.84 C 858.38 385.72 862.27 384.80 866.16 383.86 C 864.22 386.46 862.21 389.06 861.04 392.12 C 858.86 390.38 856.69 388.63 854.55 386.84 Z" />
<path fill="#ece07c" d=" M 829.48 386.85 C 833.93 387.26 838.22 388.58 842.54 389.69 C 842.72 389.72 843.07 389.76 843.25 389.79 C 841.24 393.27 838.95 396.57 836.37 399.65 C 832.51 396.45 831.78 391.09 829.48 386.85 Z" />
<path fill="#e9e596" d=" M 843.25 389.79 C 847.02 388.85 850.77 387.79 854.55 386.84 C 856.69 388.63 858.86 390.38 861.04 392.12 C 860.57 393.60 860.08 395.07 859.59 396.54 C 856.07 398.43 852.54 400.31 848.97 402.10 C 847.42 401.49 845.89 400.90 844.36 400.31 C 843.75 401.11 843.15 401.91 842.57 402.72 C 840.51 401.67 838.46 400.61 836.37 399.65 C 838.95 396.57 841.24 393.27 843.25 389.79 Z" />
<path fill="#cda92d" d=" M 922.91 388.89 C 925.80 388.27 925.83 391.36 926.76 393.22 C 927.46 395.06 929.12 396.26 930.44 397.66 C 931.86 397.69 933.30 397.72 934.75 397.77 C 934.74 400.72 932.34 402.61 931.01 404.99 C 930.03 406.64 929.13 408.44 927.36 409.37 C 927.33 407.85 927.33 406.33 927.35 404.82 C 925.77 404.27 924.21 403.73 922.65 403.19 C 923.38 401.99 924.13 400.80 924.89 399.61 C 924.28 396.02 923.52 392.47 922.91 388.89 Z" />
<path fill="#a0c945" d=" M 263.33 432.77 C 264.99 419.76 267.07 406.80 268.87 393.81 C 274.13 395.85 279.39 397.97 284.39 400.60 C 286.27 401.53 287.33 403.43 288.44 405.11 C 289.15 409.22 289.74 413.36 290.37 417.49 C 288.64 419.72 286.88 421.94 285.10 424.13 C 286.60 425.36 288.55 425.64 290.38 426.06 C 289.57 431.43 283.93 433.92 281.40 438.37 C 280.50 441.42 282.32 444.49 284.27 446.70 C 287.07 448.10 290.09 449.00 292.96 450.28 C 287.41 450.38 281.79 451.61 276.28 450.65 C 276.60 449.00 277.07 447.38 277.14 445.70 C 276.05 446.92 275.05 448.21 274.03 449.50 C 270.00 446.81 267.77 442.37 264.65 438.81 C 265.07 437.52 265.49 436.23 265.92 434.96 C 265.06 434.22 264.19 433.49 263.33 432.77 Z" />
<path fill="#cbc03a" d=" M 921.13 406.26 C 922.77 405.82 924.56 407.58 924.88 409.07 C 924.30 412.50 921.32 414.73 919.27 417.30 C 917.28 416.69 915.29 416.09 913.31 415.50 C 913.43 414.60 913.57 413.71 913.71 412.83 C 916.24 410.71 918.43 408.19 921.13 406.26 Z" />
<path fill="#ece59b" d=" M 846.12 408.27 C 849.57 409.52 853.01 408.33 856.22 406.96 C 855.45 410.03 854.37 413.06 852.27 415.49 C 850.81 414.99 849.39 414.51 847.95 414.03 C 847.33 412.11 846.73 410.19 846.12 408.27 Z" />
<path fill="#d9d767" d=" M 910.91 415.18 C 911.82 414.39 912.77 413.61 913.71 412.83 C 913.57 413.71 913.43 414.60 913.31 415.50 C 915.29 416.09 917.28 416.69 919.27 417.30 C 918.07 418.74 916.87 420.18 915.70 421.64 C 914.43 419.88 913.16 418.13 911.85 416.42 C 911.62 416.11 911.14 415.49 910.91 415.18 Z" />
<path fill="#ecefa7" d=" M 904.27 421.44 C 906.52 419.40 908.75 417.32 910.91 415.18 C 911.14 415.49 911.62 416.11 911.85 416.42 C 910.67 419.32 909.61 422.28 908.63 425.26 C 907.17 423.98 905.71 422.71 904.27 421.44 Z" />
<path fill="#e8edc9" d=" M 908.63 425.26 C 909.61 422.28 910.67 419.32 911.85 416.42 C 913.16 418.13 914.43 419.88 915.70 421.64 C 914.50 422.92 913.29 424.19 912.09 425.46 C 911.23 425.41 909.50 425.31 908.63 425.26 Z" />
</svg>
